<svg width="244" height="216" viewBox="0 0 244 216" fill="none" xmlns="http://www.w3.org/2000/svg">
<g id="13246824_5191077 1">
<g id="Background_Complete">
<g id="Group">
<g id="Shadow--inject-214">
<path id="path--inject-214" d="M122 201.982C174.256 201.982 216.618 199.509 216.618 196.458C216.618 193.407 174.256 190.934 122 190.934C69.7438 190.934 27.3817 193.407 27.3817 196.458C27.3817 199.509 69.7438 201.982 122 201.982Z" fill="#F5F5F5"/>
</g>
<g id="Group_2">
<path id="Vector" d="M116.337 152.667H22.1089C20.5717 152.664 19.3273 151.417 19.3273 149.88V17.4223C19.3404 15.8949 20.5814 14.6627 22.1089 14.6602H116.337C117.875 14.6602 119.123 15.9076 119.123 17.4467V149.88C119.123 151.419 117.875 152.667 116.337 152.667ZM22.1089 14.7578C20.639 14.7608 19.4493 15.9525 19.4493 17.4223V149.88C19.4493 151.35 20.639 152.542 22.1089 152.545H116.337C117.807 152.542 118.998 151.351 119.001 149.88V17.4223C118.998 15.952 117.807 14.7603 116.337 14.7578H22.1089Z" fill="#E6E6E6"/>
<path id="Vector_2" d="M221.896 152.667H127.663C126.126 152.664 124.879 151.418 124.877 149.88V17.4223C124.893 15.8939 126.135 14.6627 127.663 14.6602H221.896C223.422 14.6656 224.66 15.8968 224.673 17.4223V149.88C224.673 151.415 223.431 152.661 221.896 152.667ZM127.663 14.7578C126.193 14.7608 125.001 15.952 124.999 17.4223V149.88C125.001 151.351 126.193 152.542 127.663 152.545H221.896C223.366 152.542 224.558 151.351 224.561 149.88V17.4223C224.558 15.952 223.366 14.7603 221.896 14.7578H127.663Z" fill="#E6E6E6"/>
</g>
<g id="Group_3">
<path id="Vector_3" d="M41.9387 177.398H21.8282V177.52H41.9387V177.398Z" fill="#E0E0E0"/>
<path id="Vector_4" d="M82.9308 176.422H62.7617V176.544H82.9308V176.422Z" fill="#E0E0E0"/>
<path id="Vector_5" d="M109.175 176.422H104.295V176.544H109.175V176.422Z" fill="#E0E0E0"/>
<path id="Vector_6" d="M60.3997 180.59H37.8297V180.712H60.3997V180.59Z" fill="#E0E0E0"/>
<path id="Vector_7" d="M138.465 177.335H127.924V177.457H138.465V177.335Z" fill="#E0E0E0"/>
<path id="Vector_8" d="M156.438 177.335H142.808V177.457H156.438V177.335Z" fill="#E0E0E0"/>
<path id="Vector_9" d="M222.172 179.399H191.701V179.521H222.172V179.399Z" fill="#E0E0E0"/>
</g>
<path id="Vector_10" d="M244 172.61H0V172.732H244V172.61Z" fill="#EBEBEB"/>
</g>
<g id="Group_4">
<g id="Group_5">
<g id="Group_6">
<g id="Group_7">
<path id="Vector_11" opacity="0.8" d="M163.399 24.7863L162.183 41.512C162.142 42.0946 161.891 42.6236 161.504 43.0199C161.057 43.4952 160.425 43.7924 159.743 43.7924H146.327C145.831 43.7924 145.383 43.6353 145.031 43.3625C144.481 42.9535 144.152 42.2757 144.205 41.5115L145.422 24.7858C145.51 23.5257 146.602 22.5049 147.862 22.5049H161.277C162.538 22.5058 163.487 23.5262 163.399 24.7863Z" fill="#E0E0E0"/>
</g>
<g id="Group_8">
<path id="Vector_12" d="M157.581 32.3585C157.408 34.8259 155.624 36.8257 153.597 36.8257C151.569 36.8257 150.065 34.8259 150.237 32.3585C150.41 29.8912 152.194 27.8914 154.221 27.8914C156.249 27.8914 157.753 29.8917 157.581 32.3585Z" fill="white"/>
<path id="Vector_13" d="M159.272 42.6402H146.994C146.216 42.6402 145.677 42.2669 145.657 41.7428C145.629 40.984 149.611 37.6904 153.388 37.9759C153.401 37.9769 153.415 37.9759 153.429 37.9759C153.444 37.9759 153.459 37.9759 153.474 37.9759C155.788 37.9857 157.967 38.9641 159.798 40.4115C161.62 41.8516 159.896 42.6402 159.272 42.6402Z" fill="white"/>
</g>
</g>
<g id="Group_9">
<g id="Group_10">
<path id="Vector_14" d="M94.1942 43.1839C91.5824 43.2166 89.2825 41.1162 89.0668 38.5025C88.8516 35.8883 90.8011 33.7352 93.4129 33.7025C96.0252 33.6698 98.3251 35.7702 98.5403 38.3844C98.756 40.9981 96.8064 43.1512 94.1942 43.1839ZM93.6208 36.2216C92.3969 36.2367 91.4833 37.2459 91.5844 38.4708C91.6854 39.6957 92.7629 40.6795 93.9868 40.6643C95.2107 40.6492 96.1242 39.64 96.0237 38.4151C95.9227 37.1903 94.8447 36.2065 93.6208 36.2216Z" fill="#E0E0E0"/>
</g>
<g id="Group_11">
<g id="Group_12">
<path id="Vector_15" d="M94.429 35.8561L92.6312 35.8785L91.6776 24.3046L93.4754 24.2822L94.429 35.8561Z" fill="#E0E0E0"/>
</g>
<g id="Group_13">
<g id="Group_14">
<path id="Vector_16" d="M95.179 24.8014L91.8035 24.8438L91.6552 23.0441L95.0307 23.0021L95.179 24.8014Z" fill="#E0E0E0"/>
</g>
<g id="Group_15">
<path id="Vector_17" d="M95.3722 27.114L92.1983 27.1535L92.0499 25.3538L95.2239 25.3143L95.3722 27.114Z" fill="#E0E0E0"/>
</g>
<g id="Group_16">
<path id="Vector_18" d="M95.646 30.3758L92.8756 30.4105L92.7273 28.6107L95.4982 28.5761L95.646 30.3758Z" fill="#E0E0E0"/>
</g>
</g>
</g>
</g>
<g id="Group_17">
<g id="Group_18">
<path id="Vector_19" d="M38.7028 141.559C38.713 141.705 38.733 141.852 38.7574 141.993C38.9209 142.935 39.4099 143.784 40.0887 144.418C40.872 145.15 41.9138 145.604 43.0314 145.604H84.2625C86.3511 145.604 87.9581 144.023 88.0313 141.993C88.0362 141.852 88.0357 141.705 88.0254 141.559C87.9474 140.446 87.4228 139.431 86.64 138.704C85.8568 137.972 84.8149 137.518 83.6974 137.518H42.4658C40.2307 137.518 38.5466 139.329 38.7028 141.559Z" fill="#F0F0F0"/>
</g>
<g id="Group_19">
<path id="Vector_20" d="M88.0294 141.993C88.0269 142.124 88.0152 142.256 87.9932 142.383C87.8849 141.329 87.3696 140.372 86.6205 139.68C85.8377 138.948 84.7968 138.494 83.6793 138.494L39.8315 138.562C40.5016 137.913 41.4258 137.518 42.4653 137.518H83.6964C84.8139 137.518 85.8553 137.972 86.6376 138.704C87.4203 139.431 87.9488 140.446 88.0269 141.558C88.0342 141.705 88.0367 141.851 88.0294 141.993Z" fill="#E0E0E0"/>
</g>
<g id="Group_20">
<g id="Group_21">
<path id="Vector_21" d="M80.9738 139.468L81.1119 141.441L82.9604 140.756L83.3796 141.73L81.492 142.352L82.8106 144.007L81.9586 144.63L80.6751 142.911L79.6498 144.63L78.7373 144.007L79.807 142.352L77.8496 141.73L78.1317 140.762L80.0929 141.422L79.9563 139.468H80.9738Z" fill="white"/>
<path id="Vector_22" d="M69.6977 139.468L69.8358 141.441L71.6843 140.756L72.1035 141.73L70.2159 142.352L71.5345 144.007L70.6824 144.63L69.399 142.911L68.3737 144.63L67.4612 144.007L68.5309 142.352L66.5735 141.73L66.8555 140.762L68.8168 141.422L68.6802 139.468H69.6977Z" fill="white"/>
<path id="Vector_23" d="M58.4214 139.468L58.5595 141.441L60.4081 140.756L60.8273 141.73L58.9397 142.352L60.2582 144.007L59.4062 144.63L58.1228 142.911L57.0975 144.63L56.1849 144.007L57.2546 142.352L55.2972 141.73L55.5793 140.762L57.5406 141.422L57.4039 139.468H58.4214Z" fill="white"/>
<path id="Vector_24" d="M47.1452 139.468L47.2833 141.441L49.1318 140.756L49.551 141.73L47.6634 142.352L48.982 144.007L48.13 144.63L46.8465 142.911L45.8212 144.63L44.9087 144.007L45.9784 142.352L44.021 141.73L44.3031 140.762L46.2643 141.422L46.1277 139.468H47.1452Z" fill="white"/>
</g>
</g>
<g id="Group_22">
<g id="Group_23">
<path id="Vector_25" d="M74.5347 136.094H72.6129L72.6217 135.606H74.543L74.5347 136.094Z" fill="#E0E0E0"/>
</g>
<g id="Group_24">
<path id="Vector_26" d="M82.8005 136.094H76.5282L76.5365 135.606H82.8092L82.8005 136.094Z" fill="#E0E0E0"/>
</g>
</g>
</g>
</g>
<g id="Group_25" opacity="0.8">
<path id="Vector_27" d="M131.46 133.633L139.236 145.605L164.884 119.957C165.109 119.731 164.799 119.38 164.548 119.577L140.105 138.735L135.489 131.293L131.46 133.633Z" fill="#E0E0E0"/>
</g>
</g>
</g>
<g id="Device_2">
<g id="Group_26">
<path id="Vector_28" opacity="0.1" d="M126.81 48.442L108.393 117.324H114.588L132.802 48.442H126.81Z" fill="white"/>
<path id="Vector_29" opacity="0.1" d="M136.371 48.442L117.954 117.324H130.243L148.456 48.442H136.371Z" fill="white"/>
</g>
<g id="Group_27">
<g id="Group_28">
<g id="Group_29">
<g id="Group_30">
<g id="Group_31">
<g id="Group_32">
<path id="Vector_30" d="M202.671 110.594L206.556 55.3014C206.685 53.4748 205.301 51.9947 203.465 51.9966L106.971 52.0805C105.135 52.082 103.542 53.5646 103.414 55.3911L99.529 110.683C99.4007 112.51 100.785 113.99 102.62 113.988L199.115 113.904C200.951 113.902 202.543 112.42 202.671 110.594Z" fill="#263238"/>
</g>
</g>
</g>
</g>
<g id="Group_33">
<g id="Group_34">
<path id="Vector_31" d="M201.433 109.388L205.318 54.0955C205.446 52.2689 204.063 50.7888 202.227 50.7908L105.732 50.8747C103.897 50.8762 102.304 52.3587 102.176 54.1853L98.291 109.478C98.1626 111.305 99.5466 112.784 101.382 112.782L197.877 112.698C199.712 112.697 201.305 111.214 201.433 109.388Z" fill="#FFD13B"/>
<path id="Vector_32" opacity="0.6" d="M198.875 110.204C198.738 110.332 198.499 110.486 198.147 110.486L101.652 110.57C101.003 110.57 100.474 110.005 100.519 109.361L104.404 54.0691C104.429 53.7217 104.597 53.4967 104.735 53.3684C104.873 53.24 105.111 53.0868 105.463 53.0858L201.958 53.0024C202.607 53.0019 203.136 53.5665 203.091 54.2112L199.206 109.503C199.181 109.851 199.012 110.076 198.875 110.204Z" fill="white"/>
<g id="Group_35">
<path id="Vector_33" d="M166.778 79.8077H132.908C132.304 79.8077 131.762 80.2957 131.699 80.8974L131.181 85.8501C131.118 86.4519 131.557 86.9399 132.162 86.9399H166.032C166.636 86.9399 167.178 86.4519 167.241 85.8501L167.759 80.8974C167.822 80.2957 167.383 79.8077 166.778 79.8077Z" fill="white"/>
<g id="Group_36">
<path id="Vector_34" d="M136.937 100.038H131.651C131.046 100.038 130.505 100.526 130.442 101.128L129.924 106.081C129.861 106.682 130.3 107.17 130.904 107.17H136.19C136.795 107.17 137.336 106.682 137.399 106.081L137.918 101.128C137.981 100.526 137.542 100.038 136.937 100.038Z" fill="white"/>
<path id="Vector_35" d="M146.063 100.038H140.777C140.173 100.038 139.631 100.526 139.568 101.128L139.05 106.081C138.987 106.682 139.426 107.17 140.031 107.17H145.316C145.921 107.17 146.462 106.682 146.525 106.081L147.044 101.128C147.107 100.526 146.668 100.038 146.063 100.038Z" fill="white"/>
<path id="Vector_36" d="M155.189 100.038H149.903C149.299 100.038 148.757 100.526 148.694 101.128L148.176 106.081C148.113 106.682 148.552 107.17 149.157 107.17H154.442C155.047 107.17 155.589 106.682 155.651 106.081L156.17 101.128C156.233 100.526 155.794 100.038 155.189 100.038Z" fill="white"/>
<path id="Vector_37" d="M164.315 100.038H159.029C158.425 100.038 157.883 100.526 157.82 101.128L157.302 106.081C157.239 106.682 157.678 107.17 158.283 107.17H163.568C164.173 107.17 164.715 106.682 164.778 106.081L165.296 101.128C165.359 100.526 164.92 100.038 164.315 100.038Z" fill="white"/>
</g>
<path id="Vector_38" d="M137.157 96.6642H158.344C159.374 96.6642 160.296 95.8332 160.403 94.8084L160.658 92.3767C160.765 91.3514 160.017 90.5208 158.987 90.5208H137.8C136.77 90.5208 135.848 91.3519 135.741 92.3767L135.486 94.8084C135.378 95.8332 136.127 96.6642 137.157 96.6642Z" stroke="#ED4B82" stroke-miterlimit="10" stroke-linecap="round" stroke-linejoin="round"/>
<path id="Vector_39" d="M167.999 69.4939H134.129C133.524 69.4939 132.982 69.9819 132.919 70.5836L132.401 75.5363C132.338 76.138 132.777 76.626 133.382 76.626H167.252C167.857 76.626 168.398 76.138 168.461 75.5363L168.98 70.5836C169.043 69.9819 168.603 69.4939 167.999 69.4939Z" fill="white"/>
<path id="Vector_40" d="M137.027 83.374C137.097 82.7079 136.61 82.1677 135.941 82.1677C135.272 82.1677 134.672 82.7079 134.603 83.374C134.533 84.0401 135.019 84.5804 135.689 84.5804C136.358 84.5804 136.957 84.0401 137.027 83.374Z" fill="#ED4B82"/>
<path id="Vector_41" d="M140.752 83.374C140.822 82.7079 140.336 82.1677 139.666 82.1677C138.996 82.1677 138.397 82.7079 138.327 83.374C138.258 84.0401 138.744 84.5804 139.413 84.5804C140.083 84.5804 140.683 84.0401 140.752 83.374Z" fill="#ED4B82"/>
<path id="Vector_42" d="M144.477 83.374C144.547 82.7079 144.06 82.1677 143.391 82.1677C142.721 82.1677 142.122 82.7079 142.052 83.374C141.983 84.0401 142.469 84.5804 143.139 84.5804C143.808 84.5804 144.407 84.0401 144.477 83.374Z" fill="#ED4B82"/>
<path id="Vector_43" d="M148.203 83.374C148.272 82.7079 147.786 82.1677 147.117 82.1677C146.447 82.1677 145.848 82.7079 145.778 83.374C145.708 84.0401 146.195 84.5804 146.865 84.5804C147.534 84.5804 148.133 84.0401 148.203 83.374Z" fill="#ED4B82"/>
<path id="Vector_44" d="M152.001 83.374C152.071 82.7079 151.584 82.1677 150.915 82.1677C150.245 82.1677 149.646 82.7079 149.576 83.374C149.507 84.0401 149.993 84.5804 150.663 84.5804C151.332 84.5804 151.931 84.0401 152.001 83.374Z" fill="#ED4B82"/>
<path id="Vector_45" d="M138.247 73.0602C138.317 72.394 137.831 71.8538 137.161 71.8538C136.492 71.8538 135.892 72.394 135.823 73.0602C135.753 73.7263 136.239 74.2665 136.908 74.2665C137.578 74.267 138.178 73.7268 138.247 73.0602Z" fill="#ED4B82"/>
<path id="Vector_46" d="M141.973 73.0602C142.043 72.394 141.557 71.8538 140.887 71.8538C140.217 71.8538 139.618 72.394 139.548 73.0602C139.478 73.7263 139.964 74.2665 140.634 74.2665C141.304 74.267 141.903 73.7268 141.973 73.0602Z" fill="#ED4B82"/>
<path id="Vector_47" d="M145.698 73.0602C145.768 72.394 145.281 71.8538 144.612 71.8538C143.942 71.8538 143.343 72.394 143.273 73.0602C143.204 73.7263 143.69 74.2665 144.359 74.2665C145.029 74.267 145.628 73.7268 145.698 73.0602Z" fill="#ED4B82"/>
<path id="Vector_48" d="M149.423 73.0602C149.493 72.394 149.006 71.8538 148.337 71.8538C147.668 71.8538 147.069 72.394 146.999 73.0602C146.929 73.7263 147.415 74.2665 148.085 74.2665C148.755 74.2665 149.353 73.7268 149.423 73.0602Z" fill="#ED4B82"/>
<path id="Vector_49" d="M153.148 73.0602C153.218 72.394 152.731 71.8538 152.062 71.8538C151.393 71.8538 150.793 72.394 150.724 73.0602C150.654 73.7263 151.14 74.2665 151.81 74.2665C152.479 74.267 153.078 73.7268 153.148 73.0602Z" fill="#ED4B82"/>
<path id="Vector_50" d="M156.873 73.0602C156.943 72.394 156.457 71.8538 155.788 71.8538C155.118 71.8538 154.519 72.394 154.449 73.0602C154.379 73.7263 154.865 74.2665 155.535 74.2665C156.204 74.267 156.804 73.7268 156.873 73.0602Z" fill="#ED4B82"/>
</g>
<g id="Group_37">
<g id="Group_38">
<g id="Group_39">
<path id="Vector_51" d="M153.709 58.5714L153.445 61.0729C153.421 61.2984 153.218 61.4809 152.992 61.4809C152.765 61.4809 152.601 61.2979 152.625 61.0729L152.889 58.5714C152.974 57.7638 152.383 57.106 151.571 57.106H150.672C149.86 57.106 149.13 57.7638 149.045 58.5714L148.817 60.8948H147.996L148.225 58.5714C148.358 57.3134 149.494 56.2896 150.758 56.2896H151.658C152.921 56.2896 153.842 57.3129 153.709 58.5714Z" fill="#E91E63"/>
</g>
<g id="Group_40">
<g id="Group_41">
<path id="Vector_52" d="M153.726 60.9812L153.211 65.8548C153.179 66.1633 152.902 66.4126 152.592 66.4126H147.695C147.386 66.4126 147.161 66.1633 147.193 65.8548L147.708 60.9812C147.729 60.7821 147.853 60.6069 148.021 60.5088C148.112 60.4546 148.218 60.4234 148.327 60.4234H153.224C153.331 60.4234 153.426 60.4527 153.505 60.5034C153.658 60.601 153.747 60.7782 153.726 60.9812Z" fill="#E91E63"/>
</g>
</g>
</g>
</g>
</g>
</g>
</g>
<g id="Group_42">
<path id="Vector_53" d="M191.935 50.4687L180.01 50.5395" stroke="#263238" stroke-miterlimit="10" stroke-linecap="round" stroke-linejoin="round"/>
<path id="Vector_54" d="M198.435 50.4365L194.22 50.455" stroke="#263238" stroke-miterlimit="10" stroke-linecap="round" stroke-linejoin="round"/>
</g>
<g id="Group_43" opacity="0.3">
<path id="Vector_55" d="M114.728 53.0717H128.381L114.501 110.57H103.513C103.504 110.57 103.493 110.57 103.484 110.57C102.124 110.563 101.165 109.262 101.483 107.941L114.728 53.0717Z" fill="white"/>
<path id="Vector_56" d="M134.442 53.0717H140.238L126.359 110.57H120.563L134.442 53.0717Z" fill="white"/>
</g>
</g>
</g>
<g id="Device_1">
<g id="Group_44">
<g id="Group_45">
<g id="Group_46">
<g id="Group_47">
<g id="Group_48">
<path id="Vector_57" d="M42.2871 35.1236H45.057C42.2691 35.1236 40.1668 37.3835 40.362 40.1719L46.2414 124.253C46.4361 127.041 48.8546 129.302 51.6426 129.302H48.8727C46.0848 129.302 43.6667 127.042 43.4715 124.253L37.5916 40.1714C37.3969 37.3835 39.4987 35.1236 42.2871 35.1236Z" fill="#FFD13B"/>
<path id="Vector_58" d="M42.2872 35.1236H45.0571C42.2691 35.1236 40.1668 37.3835 40.362 40.1719L46.2415 124.253C46.4362 127.041 48.8547 129.302 51.6426 129.302H48.8727C46.0848 129.302 43.2764 127.042 43.0812 124.253L37.2013 40.1714C37.0065 37.3835 39.4988 35.1236 42.2872 35.1236Z" fill="#263238"/>
</g>
<path id="Vector_59" d="M49.6984 129.301H83.613C86.4009 129.301 88.5032 127.041 88.308 124.253L82.4286 40.1714C82.2334 37.3835 79.8154 35.1231 77.0274 35.1231H43.1129C40.3249 35.1231 38.2226 37.383 38.4178 40.1714L44.2973 124.253C44.4925 127.041 46.9105 129.301 49.6984 129.301Z" fill="#FFD13B"/>
<g id="Group_49" opacity="0.6">
<path id="Vector_60" d="M76.9362 36.7432C78.8721 36.7432 80.5576 38.3195 80.6928 40.2563L86.5722 124.337C86.6352 125.239 86.3477 126.081 85.7626 126.709C85.1795 127.336 84.363 127.681 83.4651 127.681H49.5506C47.6147 127.681 45.9296 126.105 45.7939 124.167L39.914 40.087C39.8511 39.1857 40.1385 38.3429 40.7236 37.7148C41.3068 37.0887 42.1232 36.7437 43.0211 36.7437L76.9362 36.7432Z" fill="white"/>
</g>
<g id="Group_50" opacity="0.3">
<path id="Vector_61" d="M67.3601 127.681H53.8337L64.9889 36.7432H75.8752C76.8673 36.7432 77.7555 37.159 78.3831 37.8232L67.3601 127.681Z" fill="white"/>
<path id="Vector_62" d="M51.406 127.681H48.3628L59.518 36.7432H62.5607L51.406 127.681Z" fill="white"/>
</g>
<g id="Group_51">
<path id="Vector_63" d="M50.35 76.4772H74.9164" stroke="white" stroke-miterlimit="10" stroke-linecap="round" stroke-linejoin="round"/>
<path id="Vector_64" d="M53.519 80.1098H72.7619" stroke="white" stroke-miterlimit="10" stroke-linecap="round" stroke-linejoin="round"/>
</g>
<g id="Group_52">
<g id="Group_53">
<path id="Vector_65" d="M51.0829 59.7261L51.1165 60.6913H50.487L50.4533 59.7183L49.3387 57.9668H50.0073L50.7764 59.1771L51.4606 57.9668H52.0789L51.0829 59.7261Z" fill="#D7263D"/>
<path id="Vector_66" d="M52.1047 59.3293C52.0759 58.5197 52.6845 57.9205 53.5439 57.9205C54.3988 57.9205 55.0537 58.5163 55.082 59.3293C55.1108 60.1428 54.4979 60.7382 53.6429 60.7382C52.784 60.7382 52.1335 60.1384 52.1047 59.3293ZM54.4447 59.3293C54.4266 58.8116 54.0484 58.4578 53.5629 58.4578C53.0768 58.4578 52.724 58.812 52.7421 59.3293C52.7601 59.8471 53.1378 60.2014 53.6239 60.2014C54.1099 60.2009 54.4628 59.8466 54.4447 59.3293Z" fill="#D7263D"/>
<path id="Vector_67" d="M55.5412 59.4928L55.488 57.9673H56.1176L56.1698 59.4699C56.1878 59.9876 56.4211 60.2014 56.8022 60.2014C57.1868 60.2014 57.401 59.9871 57.3829 59.4699L57.3307 57.9673H57.9524L58.0056 59.4928C58.0339 60.2946 57.5908 60.7382 56.8173 60.7382C56.0439 60.7382 55.5695 60.2946 55.5412 59.4928Z" fill="#D7263D"/>
<path id="Vector_68" d="M60.4056 60.6913L59.8541 59.9325H59.8229H59.2749L59.3017 60.6913H58.6722L58.577 57.9668H59.7546C60.4817 57.9668 60.9492 58.3445 60.9707 58.9555C60.9853 59.364 60.7901 59.6641 60.4412 59.8159L61.0824 60.6913H60.4056ZM59.7375 58.4807H59.2236L59.2568 59.4303H59.7702C60.1547 59.4303 60.3431 59.2512 60.3324 58.9555C60.3221 58.6559 60.1215 58.4807 59.7375 58.4807Z" fill="#D7263D"/>
<path id="Vector_69" d="M62.4127 59.3293C62.3839 58.508 62.993 57.9205 63.8401 57.9205C64.3106 57.9205 64.7093 58.0918 64.9767 58.4031L64.5853 58.7769C64.3955 58.5666 64.1627 58.4578 63.8904 58.4578C63.3809 58.4578 63.032 58.8155 63.0501 59.3293C63.0681 59.8432 63.4419 60.2014 63.9514 60.2014C64.2237 60.2014 64.4491 60.0921 64.6238 59.8783L65.0411 60.2521C64.7956 60.5674 64.4091 60.7387 63.9348 60.7387C63.092 60.7382 62.4415 60.1501 62.4127 59.3293Z" fill="#D7263D"/>
<path id="Vector_70" d="M65.2061 59.3293C65.1773 58.5197 65.7863 57.9205 66.6452 57.9205C67.5001 57.9205 68.155 58.5163 68.1833 59.3293C68.2121 60.1428 67.5992 60.7382 66.7442 60.7382C65.8853 60.7382 65.2348 60.1384 65.2061 59.3293ZM67.546 59.3293C67.528 58.8116 67.1498 58.4578 66.6642 58.4578C66.1781 58.4578 65.8253 58.812 65.8434 59.3293C65.8614 59.8471 66.2391 60.2014 66.7252 60.2014C67.2108 60.2009 67.5641 59.8466 67.546 59.3293Z" fill="#D7263D"/>
<path id="Vector_71" d="M68.6128 57.9668H69.8489C70.7385 57.9668 71.3675 58.5041 71.3968 59.3293C71.4261 60.1545 70.8342 60.6918 69.9441 60.6918H68.7079L68.6128 57.9668ZM69.8948 60.1736C70.435 60.1736 70.7776 59.8505 70.759 59.3293C70.741 58.8081 70.3759 58.4851 69.8352 58.4851H69.2599L69.3189 60.174H69.8948V60.1736Z" fill="#D7263D"/>
<path id="Vector_72" d="M74.0101 60.1853L74.0277 60.6913H71.921L71.8258 57.9668H73.8822L73.8998 58.4729H72.469L72.4895 59.0643H73.7529L73.7705 59.5548H72.5071L72.529 60.1853H74.0101Z" fill="#D7263D"/>
</g>
<g id="Group_54">
<path id="Vector_73" d="M55.8164 70.8173L55.8359 71.9124H50.6988L50.6836 71.0467L53.4052 68.4188C54.0708 67.7717 54.1836 67.3633 54.1762 66.9758C54.1655 66.3385 53.7205 65.97 52.8645 65.97C52.1876 65.97 51.6245 66.1989 51.2448 66.6967L50.3264 65.9998C50.8515 65.2732 51.8099 64.8452 52.9548 64.8452C54.4681 64.8452 55.4572 65.6113 55.4787 66.846C55.4904 67.5228 55.3123 68.1402 54.3622 69.0459L52.5317 70.8178H55.8164V70.8173Z" fill="#263238"/>
<path id="Vector_74" d="M61.4939 69.8223C61.5144 70.9969 60.6462 72.0119 58.7742 72.0119C57.7885 72.0119 56.7978 71.7133 56.142 71.2058L56.6817 70.2C57.1863 70.6177 57.9481 70.8871 58.7342 70.8871C59.66 70.8871 60.2007 70.4787 60.189 69.8321C60.1782 69.2045 59.7127 68.7965 58.6576 68.7965H58.0203L58.0052 67.9108L59.5546 66.0296H56.3889L56.3704 64.9447H61.1191L61.1337 65.8104L59.4765 67.8215C60.7946 67.9903 61.4753 68.7765 61.4939 69.8223Z" fill="#263238"/>
<path id="Vector_75" d="M67.9959 69.9116C68.0189 71.2058 66.9077 72.012 65.1753 72.012C63.4429 72.012 62.3244 71.2058 62.3015 69.9116C62.2883 69.1449 62.6763 68.5779 63.3873 68.2495C62.8246 67.9406 62.5069 67.4428 62.4957 66.786C62.4747 65.5913 63.5068 64.8447 65.0499 64.8447C66.6032 64.8447 67.6714 65.5913 67.6924 66.786C67.7036 67.4428 67.3942 67.9406 66.8321 68.2495C67.5646 68.5779 67.9828 69.1449 67.9959 69.9116ZM66.691 69.8721C66.6788 69.185 66.0742 68.757 65.1182 68.757C64.1627 68.757 63.5922 69.185 63.6044 69.8721C63.6166 70.5787 64.2017 70.9969 65.1572 70.9969C66.1132 70.9964 66.7032 70.5782 66.691 69.8721ZM63.7708 66.8455C63.7811 67.4428 64.2857 67.821 65.1021 67.821C65.9283 67.821 66.43 67.4428 66.4192 66.8455C66.4085 66.2184 65.8644 65.8597 65.0679 65.8597C64.271 65.8602 63.7596 66.2184 63.7708 66.8455Z" fill="#263238"/>
<path id="Vector_76" d="M74.4868 69.9116C74.5097 71.2058 73.3985 72.012 71.6661 72.012C69.9337 72.012 68.8153 71.2058 68.7923 69.9116C68.7791 69.1449 69.1671 68.5779 69.8781 68.2495C69.3154 67.9406 68.9978 67.4428 68.9865 66.786C68.9656 65.5913 69.9977 64.8447 71.5407 64.8447C73.094 64.8447 74.1623 65.5913 74.1833 66.786C74.195 67.4428 73.8851 67.9406 73.3229 68.2495C74.0554 68.5779 74.4731 69.1449 74.4868 69.9116ZM73.1819 69.8721C73.1697 69.185 72.565 68.757 71.6091 68.757C70.6536 68.757 70.0831 69.185 70.0953 69.8721C70.1075 70.5787 70.6926 70.9969 71.6481 70.9969C72.6041 70.9964 73.1941 70.5782 73.1819 69.8721ZM70.2612 66.8455C70.2719 67.4428 70.776 67.821 71.5925 67.821C72.4186 67.821 72.9203 67.4428 72.9096 66.8455C72.8988 66.2184 72.3547 65.8597 71.5578 65.8597C70.7619 65.8602 70.2505 66.2184 70.2612 66.8455Z" fill="#263238"/>
</g>
</g>
</g>
</g>
<g id="Group_55">
<path id="Vector_77" d="M37.4388 47.3104L38.3041 59.1058" stroke="#FFD13B" stroke-miterlimit="10" stroke-linecap="round" stroke-linejoin="round"/>
<path id="Vector_78" d="M37.0446 41.937L37.2729 45.05" stroke="#FFD13B" stroke-miterlimit="10" stroke-linecap="round" stroke-linejoin="round"/>
</g>
</g>
<g id="Group_56">
<path id="Vector_79" d="M60.2045 30.2094V23.028" stroke="#FFD13B" stroke-miterlimit="10" stroke-linecap="round" stroke-linejoin="round"/>
<path id="Vector_80" d="M54.5198 31.7285L50.9305 25.5134" stroke="#FFD13B" stroke-miterlimit="10" stroke-linecap="round" stroke-linejoin="round"/>
<path id="Vector_81" d="M69.4784 25.5134L65.8892 31.7315" stroke="#FFD13B" stroke-miterlimit="10" stroke-linecap="round" stroke-linejoin="round"/>
</g>
</g>
</g>
<g id="Plant">
<g id="Group_57">
<g id="Group_58">
<path id="Vector_82" d="M153.179 157.658C150.713 167.54 149.711 177.786 150.218 187.958" stroke="#ED4B82" stroke-miterlimit="10"/>
<g id="Group_59">
<g id="Group_60">
<path id="Vector_83" d="M151.4 157.226L151.4 157.226C151.384 156.591 151.887 156.063 152.522 156.048C153.157 156.032 153.684 156.535 153.7 157.17C153.709 157.552 153.564 158.538 153.295 159.444C153.162 159.893 153.009 160.287 152.849 160.559C152.769 160.695 152.699 160.779 152.648 160.824C152.644 160.828 152.641 160.831 152.638 160.833C152.634 160.831 152.631 160.828 152.627 160.825C152.573 160.782 152.5 160.702 152.414 160.569C152.241 160.305 152.068 159.92 151.913 159.478C151.601 158.586 151.409 157.608 151.4 157.226ZM152.609 160.853C152.609 160.853 152.609 160.853 152.61 160.853L152.609 160.853ZM152.666 160.851C152.667 160.852 152.668 160.852 152.668 160.852L152.666 160.851Z" fill="#E91E63" stroke="#ED4B82"/>
<path id="Vector_84" d="M151.65 167.549L151.65 167.549C151.64 167.166 151.785 166.181 152.054 165.275C152.187 164.826 152.341 164.432 152.501 164.16C152.581 164.024 152.65 163.94 152.701 163.895C152.705 163.891 152.708 163.888 152.712 163.886C152.715 163.888 152.719 163.891 152.722 163.894C152.776 163.937 152.849 164.017 152.936 164.15C153.108 164.414 153.281 164.799 153.436 165.241C153.748 166.133 153.94 167.111 153.949 167.493C153.965 168.128 153.462 168.656 152.827 168.671C152.192 168.687 151.665 168.184 151.65 167.549ZM152.741 163.866C152.741 163.866 152.74 163.866 152.739 163.866L152.741 163.866ZM152.683 163.868C152.682 163.867 152.681 163.867 152.681 163.867L152.683 163.868Z" fill="#E91E63" stroke="#ED4B82"/>
<path id="Vector_85" d="M151.148 162.396C151.146 162.393 151.143 162.389 151.139 162.386C151.094 162.335 151.01 162.265 150.874 162.185C150.602 162.025 150.208 161.872 149.759 161.738C148.854 161.47 147.868 161.325 147.485 161.334L151.148 162.396ZM151.148 162.396C151.146 162.4 151.143 162.403 151.14 162.407C151.097 162.461 151.017 162.534 150.884 162.62C150.62 162.793 150.235 162.966 149.792 163.121C148.901 163.433 147.923 163.625 147.541 163.634C146.906 163.65 146.378 163.147 146.363 162.512L151.148 162.396ZM151.167 162.366C151.167 162.366 151.167 162.367 151.166 162.368L151.167 162.366ZM151.168 162.424C151.168 162.425 151.168 162.425 151.168 162.425L151.168 162.424ZM146.363 162.512C146.347 161.877 146.85 161.35 147.485 161.334L146.363 162.512Z" fill="#E91E63" stroke="#ED4B82"/>
<path id="Vector_86" d="M154.2 162.322C154.203 162.319 154.205 162.316 154.208 162.312C154.251 162.258 154.332 162.185 154.464 162.098C154.728 161.926 155.114 161.753 155.556 161.598C156.448 161.286 157.425 161.094 157.808 161.085C158.443 161.069 158.971 161.572 158.986 162.207C159.001 162.842 158.499 163.369 157.864 163.384C157.481 163.394 156.495 163.249 155.589 162.98C155.14 162.847 154.747 162.693 154.475 162.533C154.338 162.453 154.254 162.384 154.209 162.333C154.206 162.329 154.203 162.326 154.2 162.322ZM154.181 162.353C154.181 162.353 154.182 162.352 154.182 162.351L154.181 162.353ZM154.181 162.295C154.18 162.294 154.18 162.293 154.18 162.293L154.181 162.295Z" fill="#E91E63" stroke="#ED4B82"/>
<path id="Vector_87" d="M148.103 158.005L148.104 158.005C148.541 157.545 149.27 157.527 149.73 157.965C150.007 158.229 150.601 159.029 151.052 159.859C151.275 160.271 151.445 160.658 151.524 160.963C151.564 161.117 151.574 161.225 151.57 161.293C151.57 161.298 151.569 161.303 151.569 161.307C151.565 161.307 151.56 161.308 151.555 161.308C151.487 161.316 151.379 161.311 151.224 161.278C150.915 161.214 150.52 161.063 150.098 160.86C149.247 160.45 148.419 159.895 148.142 159.631C147.683 159.192 147.665 158.465 148.103 158.005ZM151.562 161.341C151.562 161.341 151.563 161.341 151.563 161.34L151.562 161.341ZM151.602 161.299C151.603 161.299 151.603 161.299 151.603 161.299L151.602 161.299Z" fill="#E91E63" stroke="#ED4B82"/>
<path id="Vector_88" d="M157.245 166.714L157.245 166.714C156.807 167.174 156.079 167.192 155.619 166.754C155.342 166.49 154.747 165.69 154.297 164.86C154.073 164.448 153.904 164.061 153.824 163.756C153.785 163.602 153.774 163.494 153.778 163.426C153.779 163.421 153.779 163.417 153.78 163.412C153.784 163.412 153.788 163.411 153.793 163.411C153.861 163.403 153.97 163.408 154.125 163.441C154.434 163.505 154.828 163.656 155.25 163.859C156.101 164.269 156.929 164.824 157.206 165.088C157.666 165.527 157.683 166.254 157.245 166.714ZM153.746 163.42C153.746 163.42 153.745 163.421 153.745 163.421L153.746 163.42ZM153.786 163.378C153.786 163.378 153.786 163.378 153.785 163.379L153.786 163.378Z" fill="#E91E63" stroke="#ED4B82"/>
<path id="Vector_89" d="M148.319 166.93L148.319 166.93C148.78 167.369 149.508 167.351 149.946 166.891M148.319 166.93L148.28 165.304C148.544 165.027 149.344 164.432 150.174 163.982C150.586 163.758 150.973 163.589 151.278 163.51C151.431 163.47 151.539 163.459 151.608 163.464C151.613 163.464 151.617 163.464 151.621 163.465C151.622 163.469 151.623 163.473 151.623 163.478C151.631 163.546 151.625 163.655 151.593 163.81C151.529 164.119 151.378 164.513 151.175 164.935C150.765 165.787 150.21 166.614 149.946 166.891M148.319 166.93C147.859 166.492 147.842 165.764 148.28 165.304L148.319 166.93ZM149.946 166.891L150.308 167.236L149.946 166.891ZM151.656 163.471C151.656 163.471 151.656 163.471 151.655 163.471L151.656 163.471ZM151.614 163.432C151.613 163.431 151.613 163.43 151.613 163.43L151.614 163.432Z" fill="#E91E63" stroke="#ED4B82"/>
<path id="Vector_90" d="M157.069 159.415L157.069 159.415C156.805 159.692 156.005 160.287 155.175 160.737C154.763 160.961 154.376 161.13 154.071 161.21C153.917 161.249 153.809 161.26 153.741 161.256C153.736 161.255 153.731 161.255 153.727 161.254C153.727 161.25 153.726 161.246 153.726 161.241C153.718 161.173 153.723 161.064 153.756 160.909C153.82 160.6 153.971 160.206 154.174 159.784C154.584 158.932 155.139 158.105 155.403 157.828C155.841 157.368 156.569 157.351 157.029 157.789L157.029 157.789C157.49 158.227 157.507 158.955 157.069 159.415ZM153.692 161.248C153.692 161.248 153.693 161.248 153.694 161.249L153.692 161.248ZM153.735 161.288C153.735 161.288 153.735 161.289 153.735 161.289L153.735 161.288Z" fill="#E91E63" stroke="#ED4B82"/>
<path id="Vector_91" d="M151.221 162.395L151.221 162.395C151.201 161.591 151.836 160.925 152.639 160.906L152.639 160.906C153.442 160.887 154.109 161.522 154.128 162.325C154.148 163.128 153.512 163.795 152.71 163.814L152.709 163.814C151.907 163.833 151.24 163.198 151.221 162.395Z" fill="white" stroke="#ED4B82"/>
</g>
</g>
<path id="Vector_92" d="M151 176.42C152.253 176.344 153.215 175.942 153.961 175.381C154.821 174.734 155.423 173.853 155.843 172.944C156.263 172.035 156.492 171.116 156.615 170.421C156.617 170.411 156.618 170.402 156.62 170.392C155.986 170.777 155.024 171.244 153.652 171.64L151 176.42ZM151 176.42C151.009 176.357 151.019 176.289 151.03 176.217C151.102 175.754 151.225 175.133 151.428 174.492C151.85 173.162 152.55 171.957 153.651 171.64L151 176.42Z" fill="#E91E63" stroke="#ED4B82"/>
<path id="Vector_93" opacity="0.5" d="M151 176.42C152.253 176.344 153.215 175.942 153.961 175.381C154.821 174.734 155.423 173.853 155.843 172.944C156.263 172.035 156.492 171.116 156.615 170.421C156.617 170.411 156.618 170.402 156.62 170.392C155.986 170.777 155.024 171.244 153.652 171.64L151 176.42ZM151 176.42C151.009 176.357 151.019 176.289 151.03 176.217C151.102 175.754 151.225 175.133 151.428 174.492C151.85 173.162 152.55 171.957 153.651 171.64L151 176.42Z" fill="white" stroke="#ED4B82"/>
<path id="Vector_94" d="M143.9 174.207C143.901 174.217 143.903 174.226 143.905 174.236C144.028 174.932 144.257 175.85 144.676 176.759C145.096 177.668 145.698 178.549 146.558 179.196C147.305 179.757 148.267 180.159 149.519 180.235C149.51 180.172 149.501 180.104 149.489 180.033C149.418 179.57 149.295 178.948 149.092 178.308C148.67 176.977 147.969 175.773 146.868 175.455L143.9 174.207ZM143.9 174.207C144.533 174.592 145.495 175.059 146.868 175.455L143.9 174.207Z" fill="#E91E63" stroke="#ED4B82"/>
<path id="Vector_95" opacity="0.5" d="M143.9 174.207C143.901 174.217 143.903 174.226 143.905 174.236C144.028 174.932 144.257 175.85 144.676 176.759C145.096 177.668 145.698 178.549 146.558 179.196C147.305 179.757 148.267 180.159 149.519 180.235C149.51 180.172 149.501 180.104 149.489 180.033C149.418 179.57 149.295 178.948 149.092 178.308C148.67 176.977 147.969 175.773 146.868 175.455L143.9 174.207ZM143.9 174.207C144.533 174.592 145.495 175.059 146.868 175.455L143.9 174.207Z" fill="white" stroke="#ED4B82"/>
<g id="Group_61">
<path id="Vector_96" d="M143.104 186.522L143.104 186.522L143.105 186.521C144.144 185.826 145.418 185.282 146.846 184.956H153.282C154.754 185.297 156.06 185.859 157.111 186.581L157.112 186.582C158.886 187.794 159.905 189.404 159.905 191.127C159.905 192.857 158.875 194.479 157.095 195.69C155.316 196.9 152.832 197.664 150.064 197.664C147.294 197.664 144.81 196.9 143.032 195.691C141.252 194.479 140.224 192.857 140.224 191.127C140.224 189.377 141.278 187.734 143.104 186.522Z" fill="#E91E63" stroke="#ED4B82"/>
<path id="Vector_97" opacity="0.8" d="M157.111 186.581L157.112 186.582C158.886 187.794 159.905 189.404 159.905 191.127C159.905 192.857 158.875 194.479 157.095 195.69C155.316 196.9 152.832 197.664 150.064 197.664C147.294 197.664 144.81 196.9 143.032 195.691C141.252 194.479 140.224 192.857 140.224 191.127C140.224 189.377 141.278 187.734 143.104 186.522L143.104 186.522L143.105 186.521C144.144 185.826 145.418 185.282 146.846 184.956H153.282C154.754 185.297 156.06 185.859 157.111 186.581Z" fill="white" stroke="#ED4B82"/>
<path id="Vector_98" d="M150.094 185.089C150.094 186.249 150.094 187.409 150.094 188.568" stroke="#ED4B82" stroke-miterlimit="10"/>
</g>
<path id="Vector_99" d="M143.196 185.575L142.964 184.848H157.164L156.93 185.575H143.196Z" fill="#E91E63" stroke="#ED4B82"/>
</g>
<path id="Vector_100" d="M154.977 195.513L154.977 195.514C154.445 195.796 153.406 196.057 152.078 196.18C150.768 196.301 149.234 196.282 147.744 196.044C144.713 195.559 142.107 194.22 141.577 191.587L141.577 191.587C141.566 191.532 141.552 191.479 141.542 191.443C141.541 191.439 141.541 191.436 141.54 191.433C141.529 191.391 141.523 191.369 141.52 191.35L141.519 191.349C141.3 190.155 142.373 189.036 143.642 189.163L143.642 189.163C144.684 189.268 145.754 189.143 146.729 188.994L146.73 188.994C150.4 188.435 154.184 188.64 157.775 189.587C158.937 189.893 159.451 191.274 158.772 192.256C157.83 193.617 156.478 194.717 154.977 195.513ZM141.087 191.685L141.087 191.685L141.087 191.685ZM143.692 188.666L143.692 188.666L143.692 188.666Z" fill="#263238" stroke="#ED4B82"/>
</g>
</g>
<g id="Character_1_">
<g id="Group_62">
<g id="Group_63">
<g id="Group_64">
<path id="Vector_101" d="M84.1849 190.569C84.3679 190.504 84.4894 190.359 84.5465 190.14C84.5894 189.975 84.5275 189.866 84.4679 189.804C84.0917 189.412 82.5652 189.69 82.3925 189.723C82.3524 189.731 82.3212 189.761 82.3124 189.8C82.3036 189.84 82.3198 189.88 82.3524 189.903C82.6057 190.082 82.9756 190.319 83.3431 190.467C83.6486 190.59 83.9521 190.653 84.1849 190.569ZM84.3196 189.942C84.3445 189.967 84.3703 190.008 84.3488 190.09C84.3093 190.244 84.2327 190.338 84.1151 190.381C83.8384 190.48 83.3089 190.293 82.674 189.878C83.2875 189.784 84.1219 189.733 84.3196 189.942Z" fill="#E91E63"/>
<path id="Vector_102" d="M82.4247 189.921C82.8917 189.862 83.9663 189.311 84.0605 188.834C84.0785 188.743 84.0756 188.571 83.8516 188.448C83.7101 188.37 83.5583 188.357 83.4017 188.411C82.8126 188.613 82.3378 189.736 82.3173 189.784C82.3037 189.817 82.3085 189.855 82.3305 189.883C82.3417 189.897 82.3564 189.908 82.3725 189.915C82.3891 189.92 82.4066 189.923 82.4247 189.921ZM83.752 188.622C83.8662 188.685 83.8701 188.748 83.8604 188.795C83.8028 189.086 83.0879 189.537 82.5862 189.681C82.7643 189.315 83.1167 188.72 83.468 188.599C83.5534 188.57 83.633 188.571 83.7101 188.602C83.7242 188.608 83.7384 188.615 83.752 188.622Z" fill="#E91E63"/>
<path id="Vector_103" d="M77.7916 187.954L81.7644 189.559L85.2317 180.38L81.2589 178.775L77.7916 187.954Z" fill="#FFE89D"/>
<path id="Vector_104" d="M82.2681 189.234L77.8048 187.43C77.6423 187.364 77.4642 187.422 77.3763 187.569L75.4175 190.838C75.2145 191.178 75.3868 191.646 75.764 191.791C77.331 192.394 78.1186 192.607 80.0813 193.4C81.2886 193.888 83.0015 194.724 84.669 195.398C86.2999 196.058 87.1027 194.486 86.4697 194.058C83.6315 192.141 83.5188 191.034 82.8322 189.743C82.7077 189.51 82.5057 189.33 82.2681 189.234Z" fill="#263238"/>
<path id="Vector_105" d="M85.181 184.884L78.2811 182.095L78.9131 179.566L86.316 182.275L85.181 184.884Z" fill="#E91E63"/>
</g>
<g id="Group_65">
<path id="Vector_106" d="M92.0891 78.6395C90.6895 82.6913 86.5449 92.2366 83.352 88.2609C82.782 87.5513 82.2959 86.7827 81.9573 85.938C80.6016 82.5933 80.2683 77.1765 80.0965 75.9926L79.0088 72.2794C78.9897 72.2154 78.98 72.1486 78.9795 72.0822L78.9619 69.9619C78.9619 69.1025 79.6544 68.5916 80.5923 68.6701C80.5923 68.6701 82.1051 68.4935 82.1051 69.3972L82.3999 72.5795H82.3901C82.5424 73.6897 82.1002 75.2318 82.3608 76.2483C83.3334 80.0693 84.6783 80.2411 85.5231 84.1846C86.6967 81.341 88.8039 76.4152 88.8039 76.4152C90.223 76.5913 92.5508 77.3033 92.0891 78.6395Z" fill="#FFE89D"/>
<path id="Vector_107" d="M87.0847 89.7166C86.1312 91.1874 83.9859 91.2723 82.9518 89.8576C82.3199 88.9929 81.8192 88.0403 81.6015 87.3225C80.3342 83.1628 79.5485 80.5842 79.4407 76.2375C80.3249 75.3191 81.7636 74.9756 82.967 75.4026L85.0444 82.4454C85.0444 82.4454 89.2778 71.929 90.9868 71.5508C93.0051 71.1087 93.845 72.9074 94.6946 75.1225C95.307 76.7168 89.8419 85.4627 87.0847 89.7166Z" fill="#E91E63"/>
<g id="Group_66">
<g id="Group_67">
<path id="Vector_108" d="M104.179 61.0276C103.7 63.4685 102.625 68.7936 104.333 70.4225C104.333 70.4225 103.666 72.8986 99.13 72.8986C94.1426 72.8986 96.7466 70.4225 96.7466 70.4225C99.4687 69.7725 99.3984 67.7527 98.9245 65.8563L104.179 61.0276Z" fill="#FFE89D"/>
<path id="Vector_109" d="M96.5499 55.2706C96.5792 55.2706 96.6089 55.2638 96.6367 55.2501C96.7329 55.2018 96.7719 55.0847 96.7236 54.9886C96.241 54.0248 95.3479 53.913 95.3104 53.9086C95.204 53.8954 95.1069 53.9735 95.0947 54.0804C95.0825 54.1868 95.1591 54.2834 95.2655 54.2956C95.2952 54.299 95.9901 54.3937 96.3752 55.1628C96.4098 55.2311 96.4786 55.2701 96.5499 55.2706Z" fill="#263238"/>
<path id="Vector_110" d="M95.063 57.4037C95.063 57.4037 94.3286 58.7525 93.6288 59.3601C94.0133 59.8198 94.7756 59.7256 94.7756 59.7256L95.063 57.4037Z" fill="#ED893E"/>
<path id="Vector_111" d="M95.4548 56.6897C95.5251 57.0143 95.4104 57.3144 95.1981 57.3602C94.9863 57.4061 94.7574 57.1807 94.6872 56.8561C94.6169 56.5316 94.7316 56.2315 94.9434 56.1856C95.1552 56.1398 95.384 56.3657 95.4548 56.6897Z" fill="#263238"/>
<path id="Vector_112" d="M95.041 56.1837L94.2134 56.1281C94.2134 56.1281 94.7448 56.6497 95.041 56.1837Z" fill="#263238"/>
<path id="Vector_113" d="M78.0697 68.4974V68.507C78.0697 68.5022 78.0649 68.5022 78.0649 68.4974H78.0697Z" fill="#FFE89D"/>
<path id="Vector_114" opacity="0.2" d="M91.9135 76.5562C92.7777 75.7652 93.3623 76.0013 93.7601 76.6299C94.1529 78.457 91.8251 82.2829 90.8872 83.7318L91.9135 76.5562Z" fill="black"/>
<path id="Vector_115" d="M111.9 78.9625C111.788 80.9731 111.598 83.5058 111.29 86.6924C110.968 90.0548 110.51 94.1393 109.88 99.1023C103.248 99.1023 96.304 98.9998 93.0783 98.9998C93.3481 92.4079 93.4477 85.7286 90.4904 72.6083C90.3352 71.9187 90.7866 71.2365 91.4825 71.1126C92.8221 70.8739 95.0415 70.5328 97.3 70.4225C100.111 70.2859 102.414 70.198 104.888 70.4225C108.143 70.7202 111.842 71.4766 111.842 71.4766C111.842 71.4766 112.252 72.6868 111.9 78.9625Z" fill="#E91E63"/>
<path id="Vector_116" opacity="0.2" d="M111.9 78.9625C111.788 80.9731 111.598 83.5058 111.29 86.6925C109.504 84.6233 107.816 77.4985 108.353 75.0634C109.67 75.9613 110.89 77.3424 111.822 78.577C111.852 78.6941 111.881 78.8205 111.9 78.9625Z" fill="black"/>
<g id="Group_68">
<g id="Group_69">
<path id="Vector_117" d="M129.121 87.8944L132.52 85.9834L133.155 89.4628C133.155 89.4628 130.275 90.5662 128.75 89.7932L129.121 87.8944Z" fill="#FFE89D"/>
<path id="Vector_118" d="M134.796 86.3787L135.033 87.5142C135.107 87.8715 134.958 88.2379 134.657 88.4429L133.155 89.4628L132.52 85.9834L133.695 85.6886C134.192 85.5637 134.692 85.8775 134.796 86.3787Z" fill="#FFE89D"/>
</g>
<g id="Group_70">
<path id="Vector_119" d="M108.627 75.5095C109.717 77.7259 113.711 86.0932 115.467 88.0276L115.811 88.3883L115.983 88.5678C116.041 88.6283 116.088 88.682 116.182 88.764C116.511 89.0739 116.862 89.334 117.217 89.5468C117.93 89.9738 118.651 90.2241 119.345 90.4056C120.735 90.7531 122.056 90.8097 123.337 90.7848C125.904 90.6843 128.306 90.2534 130.706 89.5331L130.269 87.4957C129.144 87.5914 127.962 87.6606 126.819 87.6797C125.67 87.7114 124.528 87.6792 123.427 87.5723C122.329 87.4772 121.259 87.2849 120.355 86.9745C119.908 86.8159 119.514 86.6139 119.22 86.4016C119.072 86.2962 118.954 86.1849 118.857 86.0781C118.837 86.0629 118.788 86.0019 118.747 85.9522L118.619 85.7999L118.365 85.4964C117.016 83.8084 113.459 75.6695 112.391 73.635L108.627 75.5095Z" fill="#FFE89D"/>
</g>
</g>
<path id="Vector_120" d="M129.068 91.3568C126.298 92.8496 122.924 93.179 119.918 92.2459C117.06 91.3568 114.516 89.2842 113.042 86.6764C111.279 84.0831 106.589 76.7539 107.179 74.858C107.876 72.5937 109.359 71.1892 111.839 71.7982C113.583 72.2208 116.907 80.6798 118.513 84.0636C119.147 85.0064 120.355 86.4997 121.706 86.9614C124.093 87.7866 125.851 87.4279 128.351 87.0746C128.808 87.3498 128.773 87.7719 129.004 88.2482C129.476 89.2105 129.554 90.4042 129.068 91.3568Z" fill="#E91E63"/>
<path id="Vector_121" d="M106.639 57.1138C105.891 61.1276 105.659 62.842 103.36 64.6651C99.901 67.4077 95.1352 65.6099 94.6696 61.4536C94.2504 57.7126 95.5456 51.7775 99.7033 50.6576C103.8 49.5552 107.388 53.1005 106.639 57.1138Z" fill="#FFE89D"/>
<g id="Group_71">
<path id="Vector_122" d="M120.878 79.3251C120.112 80.1986 119.87 80.7042 118.806 81.1776C117.742 81.6509 115.42 81.2386 114.683 80.3358C114.922 81.0385 116.32 82.3019 117.052 82.3995C115.432 83.3462 113.153 82.9461 111.947 81.5016C112.064 82.3556 112.87 83.1218 113.685 83.4097C104.333 83.6512 108.271 79.2505 102.419 72.9928C95.9355 66.0608 97.3415 60.3322 97.3415 60.3322C97.3366 59.3415 97.117 57.697 96.0678 56.3598C95.1308 55.1594 95.4041 53.5392 95.7018 52.6315C96.1361 51.2993 97.4586 50.8308 98.7274 50.7527C98.9509 49.438 101.637 49.6801 101.98 49.8997C102.275 50.0881 102.35 50.0724 102.645 49.8836C103.305 49.4605 104.964 49.0189 106.74 50.455C107.824 51.332 108.982 52.9048 109.021 56.2525C109.062 59.7339 107.401 63.8638 113.155 69.1528C116.547 72.2696 114.926 78.9601 120.878 79.3251Z" fill="#263238"/>
</g>
<path id="Vector_123" d="M96.5705 57.4168C96.0771 58.1 95.9356 58.9492 96.0444 59.6343C96.2079 60.6645 97.2122 60.7328 97.9393 60.0725C98.5937 59.4781 99.2969 58.2259 98.7611 57.3719C98.2331 56.5306 97.1346 56.636 96.5705 57.4168Z" fill="#FFE89D"/>
<g id="Group_72">
<path id="Vector_124" d="M105.627 99.1003C105.627 99.1003 103.634 127.115 101.385 145.593C100.711 151.129 99.0236 156.497 96.4001 161.44L85.3776 182.208L79.7358 179.989C79.7358 179.989 83.6223 160.248 91.2443 149.484C91.2443 149.484 85.5552 117.31 93.0011 99.0018L105.627 99.1003Z" fill="#263238"/>
</g>
<path id="Vector_125" opacity="0.2" d="M97.9553 105.885C97.9553 105.885 99.6326 118.593 100.554 126.123C97.094 121.584 94.4437 115.252 97.9553 105.885Z" fill="black"/>
<g id="Group_73">
<path id="Vector_126" d="M119.873 193.2C120.003 193.057 120.042 192.874 119.988 192.654C119.948 192.489 119.841 192.421 119.759 192.394C119.239 192.22 118.023 193.17 117.886 193.278C117.855 193.303 117.841 193.345 117.852 193.383C117.863 193.421 117.896 193.45 117.936 193.456C118.245 193.497 118.685 193.536 119.08 193.498C119.409 193.465 119.707 193.38 119.873 193.2ZM119.693 192.583C119.727 192.594 119.77 192.618 119.79 192.701C119.827 192.855 119.806 192.974 119.722 193.065C119.524 193.28 118.968 193.36 118.209 193.285C118.707 192.919 119.419 192.49 119.693 192.583Z" fill="#E91E63"/>
<path id="Vector_127" d="M118.009 193.438C118.394 193.171 119.081 192.189 118.937 191.724C118.91 191.635 118.826 191.485 118.569 191.479C118.407 191.474 118.266 191.533 118.154 191.653C117.729 192.102 117.844 193.314 117.849 193.365C117.853 193.4 117.875 193.432 117.908 193.446C117.925 193.454 117.943 193.457 117.96 193.455C117.978 193.454 117.994 193.448 118.009 193.438ZM118.564 191.679C118.695 191.682 118.728 191.735 118.743 191.782C118.83 192.065 118.413 192.793 118.039 193.152C118.022 192.747 118.049 192.058 118.303 191.79C118.364 191.725 118.435 191.689 118.518 191.681C118.533 191.679 118.549 191.679 118.564 191.679Z" fill="#E91E63"/>
<path id="Vector_128" d="M112.98 193.835L117.254 193.423L115.95 183.715L111.676 184.127L112.98 193.835Z" fill="#FFE89D"/>
<path id="Vector_129" d="M117.544 192.904L112.742 193.366C112.568 193.383 112.438 193.516 112.429 193.686L112.254 197.478C112.236 197.871 112.612 198.205 113.014 198.16C114.686 197.97 115.482 197.796 117.594 197.592C118.894 197.467 120.805 197.417 122.599 197.244C124.354 197.075 124.315 195.316 123.552 195.23C120.132 194.844 119.505 193.918 118.284 193.094C118.064 192.945 117.8 192.879 117.544 192.904Z" fill="#263238"/>
<path id="Vector_130" d="M109.854 99.0935C109.854 99.0935 115.322 132.526 116.376 152.331L116.573 187.807L112.148 188.67C112.148 188.67 105.738 166.037 105.001 152.956C103.044 118.246 91.7382 118.188 98.54 99.0315L109.854 99.0935Z" fill="#263238"/>
<path id="Vector_131" d="M118.042 187.952L110.716 188.956L109.973 186.142L117.803 185.124L118.042 187.952Z" fill="#E91E63"/>
</g>
<path id="Vector_132" d="M78.0787 68.5306H78.0649L78.0695 68.5076C78.0695 68.5168 78.0741 68.5214 78.0787 68.5306Z" fill="#FFE89D"/>
</g>
</g>
</g>
<g id="Group_74">
<g id="Group_75">
<g id="Group_76">
<g id="Group_77">
<path id="Vector_133" d="M78.549 63.2275H78.8291C78.5475 63.2275 78.3309 63.4559 78.3455 63.7379L78.7911 72.236C78.8057 72.5175 79.0463 72.7464 79.3279 72.7464H79.0477C78.7662 72.7464 78.5256 72.518 78.5109 72.236L78.0654 63.7379C78.0508 63.4559 78.2674 63.2275 78.549 63.2275Z" fill="#E91E63"/>
<path id="Vector_134" opacity="0.1" d="M78.549 63.2275H78.8291C78.5475 63.2275 78.3309 63.4559 78.3455 63.7379L78.7911 72.236C78.8057 72.5175 79.0463 72.7464 79.3279 72.7464H79.0477C78.7662 72.7464 78.5256 72.518 78.5109 72.236L78.0654 63.7379C78.0508 63.4559 78.2674 63.2275 78.549 63.2275Z" fill="white"/>
</g>
<path id="Vector_135" d="M79.1312 72.7464H82.5589C82.841 72.7464 83.0572 72.518 83.0426 72.236L82.597 63.7379C82.5824 63.4563 82.3418 63.2275 82.0602 63.2275H78.6325C78.3509 63.2275 78.1343 63.4559 78.1489 63.7379L78.5944 72.236C78.6091 72.5175 78.8497 72.7464 79.1312 72.7464Z" fill="#E91E63"/>
<path id="Vector_136" opacity="0.4" d="M79.1312 72.7464H82.5589C82.841 72.7464 83.0572 72.518 83.0426 72.236L82.597 63.7379C82.5824 63.4563 82.3418 63.2275 82.0602 63.2275H78.6325C78.3509 63.2275 78.1343 63.4559 78.1489 63.7379L78.5944 72.236C78.6091 72.5175 78.8497 72.7464 79.1312 72.7464Z" fill="white"/>
<g id="Group_78">
<path id="Vector_137" d="M82.8283 72.0588C82.8332 72.1466 82.8039 72.2296 82.7453 72.293C82.6868 72.3516 82.6038 72.3858 82.516 72.3858H79.1927C79.0024 72.3858 78.8413 72.2296 78.8316 72.0393L78.3973 63.797C78.3924 63.7091 78.4217 63.6262 78.4802 63.5676C78.5388 63.5042 78.6217 63.47 78.7096 63.47H82.0329C82.2232 63.47 82.3842 63.6262 82.394 63.8165L82.4233 64.407L82.8283 72.0588Z" fill="#263238"/>
</g>
<g id="Group_79" opacity="0.1">
<path id="Vector_138" d="M82.4232 64.407L81.3203 72.3858H79.9978L81.2471 63.47H82.0328C82.2231 63.47 82.3841 63.6262 82.3939 63.8165L82.4232 64.407Z" fill="white"/>
<path id="Vector_139" d="M79.5196 72.3858H79.2214L80.4712 63.4705H80.7699L79.5196 72.3858Z" fill="white"/>
</g>
</g>
</g>
</g>
</g>
<path id="Vector_140" d="M91.9982 100.047C89.5133 104.918 88.1611 110.363 88.0786 115.832C96.3853 122.268 104.1 114.73 113.596 116.004C113.264 111.715 111.808 103.78 110.077 99.8416C103.802 100.107 97.926 99.4805 91.9982 100.047Z" fill="#E91E63"/>
<g id="Group_80">
<path id="Vector_141" d="M92.8625 98.3049C92.8625 98.3049 92.1925 100.024 92.3842 100.024H109.795C109.944 100.024 110.068 99.9504 110.078 99.8563L110.227 98.3703C110.238 98.2673 110.108 98.18 109.944 98.18H93.1328C93.0089 98.1805 92.8996 98.2307 92.8625 98.3049Z" fill="white"/>
</g>
<path id="Vector_142" d="M95.3152 100.17H94.8648C94.775 100.17 94.7067 100.124 94.7131 100.068L94.9244 98.137C94.9307 98.0804 95.0088 98.0345 95.0986 98.0345H95.549C95.6388 98.0345 95.7071 98.0809 95.7008 98.137L95.4895 100.068C95.4836 100.124 95.405 100.17 95.3152 100.17Z" fill="#E91E63"/>
<path id="Vector_143" d="M106.229 100.17H105.778C105.689 100.17 105.62 100.124 105.627 100.068L105.838 98.137C105.844 98.0804 105.922 98.0345 106.012 98.0345H106.463C106.552 98.0345 106.621 98.0809 106.614 98.137L106.403 100.068C106.397 100.124 106.319 100.17 106.229 100.17Z" fill="#E91E63"/>
</g>
</g>
</g>
</svg>
