<svg width="86" height="86" viewBox="0 0 86 86" fill="none" xmlns="http://www.w3.org/2000/svg">
<g id="user (2) 1 (traced)">
<g id="Cyan">
<path id="Vector" d="M41.2362 13.6055C34.6687 14.3277 29.1425 19.1484 27.446 25.6152C27.0765 27.0262 27.0093 27.6645 27.0093 29.5625C27.0093 31.4605 27.0765 32.0988 27.446 33.5098C28.9409 39.2039 33.3585 43.6383 39.0526 45.1164C41.4546 45.7379 44.5452 45.7379 46.9472 45.1164C52.6413 43.6383 57.0589 39.2039 58.5538 33.5098C58.9233 32.0988 58.9905 31.4605 58.9905 29.5625C58.9905 27.6645 58.9233 27.0262 58.5538 25.6152C56.5382 17.8719 49.1308 12.732 41.2362 13.6055Z" fill="#F278A1"/>
<path id="Vector_2" d="M39.9766 51.2305C30.2344 51.9863 21.2145 56.0008 14.1262 62.7531C12.5305 64.2648 9.74219 67.4563 9.74219 67.7754C9.74219 68.0945 11.9426 70.7148 13.6055 72.3777C19.7195 78.4918 27.4965 82.5231 35.9957 83.9844C49.1477 86.2352 62.7699 81.952 72.1762 72.5961C73.7887 71.0172 76.2578 68.1281 76.2578 67.8426C76.2578 67.5066 74.1918 65.1047 72.2938 63.2234C65.8102 56.7734 57.4117 52.6582 48.375 51.4992C45.8387 51.1801 42.177 51.0625 39.9766 51.2305Z" fill="#F278A1"/>
</g>
<g id="LightGray">
<path id="Vector_3" d="M38.7168 1.44453C29.1762 2.45234 20.341 6.68515 13.5047 13.5047C7.27305 19.7531 3.42656 27.1941 1.81406 36.0797C1.47813 37.9777 1.42773 38.7336 1.42773 43C1.42773 48.3582 1.6293 49.9539 2.78828 54.2035C3.98086 58.5539 6.33242 63.5426 8.85195 67.0363L9.42305 67.8426L10.4645 66.5492C16.6793 58.7051 25.8168 53.3973 36.2309 51.5496C38.7504 51.0961 44.4613 50.9281 47.2328 51.2137C54.993 52.0367 62.2828 54.9426 68.5984 59.7633C70.5973 61.2918 73.9062 64.5168 75.4516 66.4652L76.5602 67.8594L77.148 67.0531C79.7348 63.4418 82.1199 58.3355 83.2957 53.8844C84.3875 49.7691 84.5723 48.2574 84.5723 43C84.5555 37.9945 84.4547 36.9027 83.6316 33.4258C81.8512 25.8168 78.1055 19.1316 72.4953 13.5047C66.1965 7.22265 58.8731 3.42656 49.9539 1.83086C48.3246 1.52851 47.1656 1.46133 43.6719 1.42773C41.3203 1.39413 39.0863 1.41093 38.7168 1.44453ZM47.1824 13.9246C49.0469 14.4789 50.3234 15.05 51.9023 16.0746C55.077 18.1406 57.3781 21.2816 58.5707 25.1449C58.9906 26.5055 59.0242 26.8414 59.0242 29.5625C59.0242 32.2836 58.9906 32.6027 58.5707 33.9969C57.3781 37.8602 55.077 40.9844 51.8855 43.0504C50.3066 44.075 49.0133 44.6629 47.0816 45.2172C45.9395 45.5531 45.402 45.6035 42.916 45.5867C40.2957 45.5867 39.943 45.5531 38.5656 45.1164C32.9051 43.3863 28.857 39.2039 27.2781 33.493C26.9086 32.1492 26.7742 28.5379 27.043 26.9422C27.8492 21.8695 31.0742 17.4855 35.727 15.134C38.3305 13.807 40.1277 13.4375 43.4199 13.5047C45.3684 13.5551 46.225 13.6559 47.1824 13.9246Z" fill="#FEF3F7"/>
</g>
</g>
</svg>
