<svg width="18" height="16" viewBox="0 0 18 16" fill="none" xmlns="http://www.w3.org/2000/svg">
<g id="Black">
<path id="Vector" d="M13.6406 0.550261C13.2785 0.599481 12.7477 0.785809 12.3996 0.989715C12.1359 1.1444 11.8055 1.46784 8.52187 4.74792C5.42812 7.83815 4.91836 8.36198 4.82695 8.54479C4.63008 8.93151 4.58789 9.10729 4.58789 9.54675C4.58789 10.053 4.66875 10.3413 4.92539 10.721C5.31562 11.3081 5.91328 11.621 6.64453 11.621C7.03125 11.621 7.3125 11.5542 7.64648 11.3819C7.86797 11.2694 8.1 11.0479 10.118 9.0405C11.3449 7.82057 12.3785 6.77643 12.4172 6.7237C12.7336 6.28776 12.3539 5.70417 11.823 5.80261C11.7035 5.8237 11.4258 6.08737 9.43945 8.07018C7.72031 9.78581 7.15078 10.3342 7.03125 10.387C6.82383 10.4819 6.46875 10.4854 6.27539 10.394C5.94141 10.2393 5.71289 9.86315 5.7375 9.51511C5.74453 9.40612 5.78672 9.24792 5.82891 9.16003C5.88516 9.04401 6.8168 8.09128 9.37617 5.53542C12.593 2.32565 12.8672 2.06198 13.0992 1.94245C13.4051 1.78425 13.718 1.7069 14.0449 1.7069C15.3035 1.7069 16.2844 2.87057 16.0523 4.09401C16.0207 4.26276 15.9434 4.49831 15.8695 4.65651C15.743 4.91667 15.6516 5.01159 11.4293 9.24089C9.05977 11.6174 7.01719 13.6389 6.89062 13.7339C6.60234 13.9518 6.18047 14.1628 5.81836 14.2647C5.44219 14.3702 4.61602 14.3807 4.23633 14.2823C3.63867 14.1241 2.94258 13.6882 2.58398 13.2452C1.71562 12.1729 1.58906 10.8159 2.25352 9.62409C2.39414 9.378 2.69648 9.06159 5.83945 5.90807C9.52031 2.21667 9.3832 2.36432 9.34102 2.04792C9.31992 1.88268 9.23555 1.75612 9.0668 1.64362C8.96484 1.57331 8.91211 1.56276 8.73281 1.57331C8.55703 1.58386 8.49375 1.60495 8.38125 1.69636C8.10703 1.91784 1.76484 8.30573 1.60312 8.5237C1.24102 9.01589 1.01953 9.47995 0.850781 10.1057C0.766406 10.4151 0.759375 10.503 0.755859 11.1464C0.755859 11.9303 0.798047 12.1729 1.04063 12.7741C1.94766 15.0382 4.57734 16.0964 6.82734 15.1049C7.5375 14.7921 7.37578 14.9397 12.1395 10.1831C14.5547 7.77487 16.5973 5.70768 16.6816 5.59167C17.0754 5.04323 17.2617 4.44206 17.2617 3.72839C17.2617 2.80729 16.9418 2.0444 16.2914 1.42214C15.9891 1.13737 15.7887 1.00026 15.4195 0.82448C14.8992 0.581903 14.2137 0.476434 13.6406 0.550261Z" fill="#5A5A5A"/>
</g>
</svg>
