<svg width="36" height="36" viewBox="0 0 36 36" fill="none" xmlns="http://www.w3.org/2000/svg">
<g id="Black">
<path id="Vector" d="M15.9961 0.667969C14.3578 0.928127 13.0078 1.58907 12.2555 2.51016C12.1148 2.67891 11.7844 2.96016 11.5172 3.12891C10.6031 3.72656 10.0125 4.4086 9.52734 5.42109C9.04219 6.45469 8.98594 6.84844 9.01406 9.09141C9.04219 10.6664 9.07031 11.1586 9.16172 11.482C9.27422 11.8688 9.27422 11.9039 9.14062 12.3047C8.96484 12.825 8.94375 14.0414 9.10547 14.6461C9.33047 15.5039 9.89297 16.2633 10.5258 16.5445C10.7859 16.6641 10.8141 16.7063 10.9617 17.2125C11.3484 18.5203 11.8266 19.4766 12.5508 20.3625L12.9445 20.8477L12.9234 22.0078C12.8953 23.2945 12.825 23.5477 12.3609 24.1242C11.5172 25.1789 9.21094 26.2688 6.22266 27.0352C4.87266 27.3797 4.42266 27.5344 3.7125 27.8789C1.48359 28.9758 0.5625 30.7406 0.5625 33.8836V34.882L1.14609 34.8609L1.72266 34.8398L1.77188 33.5391C1.8 32.5617 1.84922 32.0977 1.96172 31.6898C2.24297 30.6141 2.80547 29.8336 3.7125 29.243C4.37344 28.807 5.09062 28.5328 6.57422 28.1531C7.22812 27.9844 8.20547 27.6961 8.73281 27.5203L9.70312 27.1898L10.4273 27.893C12.0094 29.4188 14.0273 30.4383 16.1789 30.8039C16.9312 30.9305 17.2266 30.9516 18.3516 30.9164C19.2867 30.8883 19.8211 30.8391 20.257 30.7406C22.2961 30.2625 24.0891 29.3063 25.5656 27.893L26.3039 27.1898L27.2672 27.5203C27.7945 27.6961 28.7719 27.9844 29.4258 28.1531C30.9094 28.5328 31.6266 28.807 32.2875 29.243C32.9273 29.6578 33.4055 30.1922 33.7148 30.832C34.0734 31.5914 34.1859 32.1961 34.2352 33.7641C34.2773 34.9734 34.2984 35.1703 34.418 35.2969C34.5938 35.4938 35.1 35.4938 35.2969 35.2969C35.4234 35.1703 35.4375 35.0648 35.4375 34.0242C35.4375 29.8336 34.0383 28.0898 29.8406 27.0422C28.793 26.775 27.2742 26.2688 26.4023 25.8891C24.8062 25.2 23.6812 24.3563 23.2945 23.5688C23.1117 23.1961 23.0977 23.1047 23.0766 22.0359L23.0484 20.9039L23.4914 20.3133C24.1664 19.4344 24.6937 18.3375 24.9891 17.2266C25.1086 16.7836 25.1227 16.7625 25.5375 16.5234C26.4867 15.975 26.9648 14.9766 26.9578 13.5352C26.9508 13.0008 26.9156 12.7266 26.7961 12.382C26.6484 11.9531 26.6414 11.918 26.7539 11.4469C26.9156 10.7367 27.0211 9.21797 26.9719 8.325C26.9016 6.96797 26.6484 5.86407 26.2125 4.92891C26.0086 4.50703 26.0016 4.47188 26.107 4.29609C26.318 3.9375 26.4375 3.35391 26.4375 2.7C26.4375 2.11641 26.4234 2.025 26.2687 1.85625L26.107 1.65938L25.2 1.68047C23.7516 1.7086 22.725 1.53984 21.3398 1.05469C20.3273 0.703125 19.3148 0.5625 17.8383 0.569534C17.1352 0.576565 16.3055 0.618752 15.9961 0.667969ZM19.7227 1.87032C20.0672 1.92656 20.6227 2.06719 20.9531 2.18672C22.2258 2.63672 23.2312 2.8125 24.525 2.8125H25.2492L25.2 3.07266C25.1437 3.41016 25.0031 3.75469 24.8203 4.00781C24.6094 4.31016 24.6375 4.65469 24.9258 5.11875C25.3828 5.86407 25.6922 7.05235 25.7766 8.36016C25.8187 9.04922 25.6992 10.8422 25.6008 11.025C25.5234 11.1586 25.3055 10.8563 24.8555 10.0195C24.1102 8.61328 23.5055 7.91719 22.6898 7.53047C21.8391 7.12969 21.3117 7.09453 19.5891 7.31953C17.1211 7.64297 15.6586 7.36172 14.5336 6.35625C14.393 6.22266 14.2031 6.11719 14.1117 6.11719C13.7672 6.12422 13.6195 6.3 13.2469 7.12969C12.7477 8.24063 12.2836 9.04219 11.7422 9.72422C11.2992 10.2727 10.5328 10.9688 10.3641 10.9688C10.2305 10.9688 10.1953 10.5258 10.1953 8.81719C10.1883 7.01016 10.2305 6.72188 10.6664 5.83594C10.9828 5.175 11.7984 4.33125 12.375 4.05703C12.6492 3.92344 12.8461 3.76875 13.057 3.4875C13.8867 2.40469 15.1383 1.87735 17.1211 1.77188C18.1969 1.7086 18.9281 1.73672 19.7227 1.87032ZM16.0102 8.55C16.7414 8.72578 18.9633 8.73281 19.9688 8.55703C21.9516 8.20547 22.6195 8.56406 23.7586 10.5891C24.3492 11.6508 24.6797 12.0516 25.1367 12.2766C25.6641 12.5297 25.7625 12.7406 25.7555 13.6055C25.7555 14.0836 25.7133 14.3367 25.6008 14.6391C25.4109 15.1383 24.9609 15.5602 24.5039 15.6727C24.1172 15.7711 24.0258 15.9047 23.8711 16.6289C23.7234 17.325 23.3438 18.2953 22.9711 18.9492C22.5633 19.6664 21.593 20.5945 20.6719 21.157C19.5047 21.8813 19.4344 21.8953 18 21.9023C16.5234 21.9023 16.3336 21.8531 15.2578 21.1781C14.3156 20.5945 14.1891 20.4961 14.0555 20.2641C13.9992 20.1586 13.8797 20.0391 13.7953 19.9969C13.2609 19.7297 12.4453 18.1688 12.0516 16.6852C11.9531 16.3055 11.8266 15.9469 11.7703 15.8906C11.7141 15.8344 11.475 15.7078 11.2359 15.6094C10.4625 15.293 10.125 14.6461 10.125 13.4578C10.125 12.7055 10.1883 12.4805 10.4273 12.4172C10.7648 12.3328 11.6508 11.6789 12.2062 11.1023C12.8531 10.4203 13.4508 9.54141 13.957 8.53594L14.3086 7.83985L14.8781 8.12813C15.1945 8.28281 15.7078 8.47266 16.0102 8.55ZM14.8078 22.2258C15.8414 22.9008 16.2422 23.0133 17.6977 23.0484C19.5047 23.0906 20.0602 22.9641 21.2344 22.2258L21.9023 21.8039L21.9445 22.732C21.9727 23.4563 22.0148 23.7305 22.1273 23.9766C22.507 24.8133 23.4281 25.7133 24.5109 26.3039C24.7992 26.4656 25.0453 26.6133 25.0664 26.6484C25.1086 26.7258 24.4336 27.3375 23.7516 27.8508C20.3133 30.4031 15.6656 30.3891 12.1992 27.8086C11.5523 27.3305 10.8914 26.7188 10.9336 26.6484C10.9547 26.6133 11.2008 26.4656 11.4891 26.3039C12.6703 25.657 13.6266 24.6727 13.9219 23.8078C14.0273 23.4844 14.0625 23.2031 14.0625 22.5914C14.0625 22.1555 14.0836 21.7969 14.1047 21.7969C14.1258 21.7969 14.4422 21.9867 14.8078 22.2258Z" fill="#E91E63"/>
</g>
</svg>
