<svg width="18" height="16" viewBox="0 0 18 16" fill="none" xmlns="http://www.w3.org/2000/svg">
<g id="Black">
<path id="Vector" d="M6.10666 0.933594C5.85353 0.979298 5.52306 1.14805 5.33674 1.33086C5.03791 1.61914 4.89728 1.90742 4.834 2.34688L4.81291 2.51562H3.28713C2.31681 2.51562 1.69455 2.52969 1.57502 2.5543C0.914079 2.69141 0.30236 3.25742 0.0879071 3.93242L1.64521e-05 4.20664V8.80156C1.64521e-05 13.843 -0.0105304 13.5477 0.21447 14.0082C0.355095 14.2965 0.713688 14.6586 1.02658 14.8309C1.15314 14.9047 1.37814 14.9926 1.52931 15.0312C1.80002 15.1016 1.92306 15.1016 8.9965 15.1016C15.1031 15.1016 16.2246 15.091 16.4285 15.0488C16.9629 14.9363 17.5008 14.5215 17.761 14.0258C18.0141 13.5441 18 13.8676 18 8.79102C18 3.75313 18.0106 4.03438 17.782 3.59141C17.6133 3.27148 17.1949 2.8707 16.8715 2.71602C16.7274 2.64922 16.527 2.57539 16.425 2.5543C16.3055 2.52969 15.6797 2.51562 14.6953 2.51562H13.1485V2.38203C13.1485 1.93555 12.8461 1.4293 12.4172 1.15508C12.0305 0.905469 12.2063 0.919532 9.08791 0.9125C7.54103 0.908985 6.19806 0.919532 6.10666 0.933594ZM11.7914 1.87578C12.1149 1.98828 12.2344 2.24844 12.2344 2.83906C12.2344 3.15547 12.2836 3.275 12.4594 3.38047C12.5613 3.44375 12.6844 3.44727 14.4317 3.46484C16.2317 3.48242 16.302 3.48594 16.4531 3.55625C16.6535 3.65117 16.882 3.87969 16.9875 4.09063L17.0684 4.25586V8.77344V13.291L16.9524 13.5266C16.8188 13.8008 16.6219 13.9801 16.3477 14.0855C16.1754 14.1523 15.9926 14.1523 9.00002 14.1523C2.00744 14.1523 1.82463 14.1523 1.65236 14.0855C1.37814 13.9801 1.18127 13.8008 1.04767 13.5266L0.931657 13.291L0.92111 8.94922C0.910563 4.53359 0.917595 4.29453 1.04064 4.05547C1.13205 3.8832 1.33947 3.67578 1.5258 3.57734L1.70509 3.48242L3.58595 3.46484L5.46681 3.44727L5.58283 3.36641C5.75861 3.23984 5.7797 3.16602 5.8008 2.69141C5.81838 2.30117 5.83244 2.23789 5.90627 2.12188C6.00119 1.98125 6.1383 1.88633 6.30705 1.84414C6.36681 1.83008 7.58674 1.81953 9.0176 1.81602C11.3836 1.81602 11.6332 1.81953 11.7914 1.87578Z" fill="#5A5A5A"/>
<path id="Vector_2" d="M14.8887 4.58644C14.1223 4.78683 14.0098 5.81691 14.7129 6.18253C14.9238 6.29152 15.2613 6.288 15.4863 6.17199C15.9399 5.93644 16.0805 5.33527 15.7746 4.91339C15.5883 4.64972 15.1946 4.50558 14.8887 4.58644Z" fill="#5A5A5A"/>
<path id="Vector_3" d="M8.26176 4.64617C6.90122 4.89227 5.75161 5.77469 5.17153 7.01922C4.64067 8.15125 4.65122 9.50477 5.20669 10.6544C6.45473 13.2559 9.93872 13.836 11.9918 11.7899C13.1766 10.6052 13.5422 8.8157 12.92 7.23016C12.5543 6.295 11.7985 5.47938 10.8704 5.01531C10.561 4.86063 10.0934 4.70945 9.72075 4.64617C9.33755 4.57938 8.62739 4.57938 8.26176 4.64617ZM9.65044 5.63055C10.2094 5.73953 10.8668 6.08406 11.2817 6.49539C11.6965 6.9032 12.0024 7.43055 12.1571 7.99656C12.2801 8.46063 12.2872 9.20945 12.1711 9.63485C11.8547 10.7809 10.9934 11.6423 9.8227 11.9798C9.58716 12.0466 9.46059 12.0606 9.00005 12.0606C8.5395 12.0606 8.41294 12.0466 8.17739 11.9798C6.89419 11.6106 6.00825 10.6403 5.78325 9.35008C5.69184 8.81922 5.73755 8.27781 5.92387 7.74695C6.27192 6.75203 7.08051 5.98211 8.07544 5.69735C8.61684 5.54266 9.07387 5.52156 9.65044 5.63055Z" fill="#5A5A5A"/>
</g>
</svg>
