<svg width="14" height="14" viewBox="0 0 14 14" fill="none" xmlns="http://www.w3.org/2000/svg">
<g id="Black">
<path id="Vector" d="M4.8282 0.0498047C4.42195 0.149804 3.96257 0.443555 3.7032 0.77168C3.5657 0.949804 3.40007 1.23418 3.36257 1.36543L3.3407 1.43418L6.2407 1.44355L9.1407 1.45605L9.42195 1.5373C9.79695 1.64668 10.0251 1.75293 10.3376 1.95605C10.9094 2.32793 11.3688 2.92793 11.5907 3.58418C11.7501 4.05918 11.7501 4.05918 11.7501 7.89668V11.4717L11.8219 11.4498C12.0688 11.3748 12.4719 11.0967 12.6657 10.8686C12.8594 10.6373 12.9626 10.4623 13.0751 10.1717L13.1719 9.92168L13.1813 5.89043C13.1907 1.36855 13.2032 1.63105 12.9626 1.14668C12.7782 0.777929 12.4001 0.402929 12.0313 0.224805C11.5469 -0.0126953 11.7626 -0.000195503 8.2032 0.00292969C5.53445 0.00605488 4.98445 0.0123043 4.8282 0.0498047Z" fill="white"/>
<path id="Vector_2" d="M2.4844 2.45298C2.3594 2.47798 2.13752 2.56236 1.96877 2.64361C1.48127 2.88736 1.1094 3.30923 0.912522 3.84986L0.828147 4.07798L0.818772 8.13736C0.809397 12.6717 0.796897 12.3499 1.03752 12.8436C1.21877 13.2186 1.59377 13.5936 1.96877 13.7749C2.4594 14.0155 2.2344 14.003 5.86252 13.9936L9.1094 13.9842L9.33752 13.8999C9.67815 13.778 9.89377 13.6374 10.1625 13.3686C10.3531 13.1749 10.4313 13.0686 10.5438 12.8374C10.7969 12.3217 10.7844 12.5655 10.775 8.09361L10.7656 4.14048L10.6938 3.92173C10.575 3.56861 10.4188 3.31861 10.1438 3.04361C9.86877 2.76861 9.61877 2.61236 9.26565 2.49361L9.0469 2.42173L5.87502 2.41548C3.27815 2.41236 2.66252 2.41861 2.4844 2.45298Z" fill="white"/>
</g>
</svg>
