<svg width="14" height="16" viewBox="0 0 14 16" fill="none" xmlns="http://www.w3.org/2000/svg">
<g id="Red">
<path id="Vector" d="M4.57812 0.028125C4.48125 0.0687501 4.37813 0.196875 4.34375 0.315625C4.325 0.375 4.3125 0.678125 4.3125 0.990625V1.5625H7H9.6875V0.990625C9.6875 0.678125 9.67188 0.371875 9.65625 0.309375C9.64062 0.25 9.58125 0.159375 9.52813 0.10625L9.43438 0.0156251L7.0375 0.0093751C5.71875 0.00625014 4.6125 0.0156251 4.57812 0.028125Z" fill="white"/>
<path id="Vector_2" d="M1.28125 2.49063C0.971875 2.59688 0.728125 2.85 0.6375 3.15C0.60625 3.25 0.59375 3.47813 0.59375 3.9125V4.53125H7.00313H13.4094L13.4 3.85C13.3906 3.20313 13.3875 3.16563 13.3156 3.01563C13.2156 2.81875 13.0281 2.62813 12.8281 2.53125L12.6719 2.45313L7.04688 2.44688C1.99375 2.44063 1.40625 2.44375 1.28125 2.49063Z" fill="white"/>
<path id="Vector_3" d="M1.625 5.4596C1.625 5.49085 1.77813 7.76272 1.96875 10.5065C2.34063 15.969 2.30625 15.6158 2.52188 15.8158C2.73438 16.0158 2.39063 16.0002 7.0125 15.994L11.2125 15.9846L11.35 15.8908C11.5031 15.7815 11.6156 15.6033 11.6406 15.4221C11.65 15.3533 11.8125 13.1658 12 10.5627C12.1875 7.9596 12.35 5.7346 12.3625 5.61585L12.3813 5.40648H7.00313C1.90313 5.40648 1.625 5.4096 1.625 5.4596ZM5.55938 6.9221C5.60938 6.9471 5.68438 7.0096 5.73125 7.06585L5.8125 7.16272L5.80625 10.4846L5.79688 13.8065L5.71875 13.8908C5.55 14.0721 5.38125 14.1065 5.1875 13.9971C4.95313 13.8627 4.96875 14.1377 4.96875 10.469C4.96875 6.80647 4.95313 7.07522 5.18438 6.94085C5.31875 6.86585 5.4375 6.85647 5.55938 6.9221ZM8.80625 6.93773C8.8625 6.9721 8.93438 7.04397 8.96875 7.10022C9.03125 7.20022 9.03125 7.26585 9.03125 10.4627C9.03125 14.0127 9.04063 13.8221 8.85625 13.9658C8.6625 14.119 8.375 14.0627 8.24063 13.8471L8.17188 13.7346V10.469V7.20335L8.24375 7.09085C8.36875 6.88772 8.6125 6.81897 8.80625 6.93773Z" fill="white"/>
</g>
</svg>
