<svg width="18" height="30" viewBox="0 0 18 30" fill="none" xmlns="http://www.w3.org/2000/svg">
<g id="Black">
<path id="Vector" d="M7.69933 0.796877C3.80402 1.4086 0.773551 4.34766 0.105582 8.1586C-0.0350425 8.96719 -0.0350425 10.5563 0.112614 11.3789C0.65402 14.5008 2.91105 17.1656 5.94152 18.2555C6.50402 18.4523 7.6923 18.7266 8.01574 18.7266H8.22668V21.3633V24H6.5673H4.90793L4.70402 24.2039C4.53527 24.3797 4.50011 24.4711 4.50011 24.7523C4.50011 25.0477 4.53527 25.132 4.71808 25.3078L4.92902 25.5117L6.58136 25.5328L8.22668 25.5539V27.1781V28.7953L8.46574 29.0344C8.66261 29.2313 8.76105 29.2734 9.00011 29.2734C9.23918 29.2734 9.33761 29.2313 9.53449 29.0344L9.77355 28.7953V27.1711V25.5469H11.3275C13.022 25.5469 13.2611 25.5047 13.4228 25.1531C13.5704 24.8227 13.5212 24.4289 13.2962 24.2039L13.0923 24H11.4329H9.77355V21.3773V18.7547L10.3571 18.6773C13.8939 18.1852 16.8329 15.5203 17.754 11.9766C18.0071 10.9922 18.0775 9.2625 17.9017 8.22891C17.3603 5.03672 15.1173 2.35078 12.0939 1.25391C11.1306 0.909378 10.4556 0.789846 9.24621 0.761721C8.62746 0.74766 7.93136 0.761721 7.69933 0.796877ZM10.779 2.5125C11.5525 2.70938 12.5579 3.15938 13.2259 3.60938C13.8095 4.00313 14.7939 4.99453 15.1736 5.57813C15.7853 6.50625 16.165 7.44844 16.3478 8.4961C17.0298 12.4125 14.4282 16.2234 10.5118 17.0461C9.65402 17.2289 8.34621 17.2289 7.48136 17.0461C4.05715 16.3289 1.54699 13.2492 1.54699 9.76172C1.54699 8.27813 1.97589 6.86485 2.82668 5.57813C3.20636 4.99453 4.19074 4.00313 4.77433 3.60938C5.70949 2.9836 6.96808 2.49141 8.0298 2.34375C8.75402 2.23828 10.0126 2.32266 10.779 2.5125Z" fill="#E91E63"/>
</g>
</svg>
