<svg width="16" height="14" viewBox="0 0 16 14" fill="none" xmlns="http://www.w3.org/2000/svg">
<g id="Black">
<path id="Vector" d="M9.59375 0.384181C9.5 0.434181 9.43437 0.499806 9.38438 0.593556L9.3125 0.727931V2.18731V3.64668L8.94688 3.66856C8.075 3.71856 7.00938 3.94043 6.20312 4.23731C5.98125 4.31856 5.55 4.50918 5.24688 4.66231C3.025 5.77168 1.33125 7.69668 0.51875 10.0311C0.18125 10.9967 0 12.0092 0 12.9092C0 13.2998 0.00625 13.3436 0.071875 13.4404C0.175 13.5967 0.321875 13.6623 0.534375 13.6467C0.759375 13.6342 0.853125 13.5717 0.99375 13.3373C1.46563 12.5592 1.875 12.0248 2.40313 11.4998C3.69375 10.2154 5.35625 9.38106 7.15625 9.10918C7.53125 9.05293 8.37187 8.99981 8.93125 8.99981H9.3125V10.4623C9.3125 11.9154 9.3125 11.9248 9.38438 12.0623C9.42188 12.1373 9.49063 12.2279 9.5375 12.2592C9.64688 12.3404 9.89375 12.3623 10.0344 12.3029C10.1438 12.2592 15.7406 6.86231 15.9156 6.63418C15.9812 6.54668 16 6.48731 16 6.36231C16 6.27481 15.9906 6.16856 15.9781 6.12793C15.95 6.02168 10.2063 0.446681 10.0469 0.371681C9.88125 0.293556 9.75625 0.296681 9.59375 0.384181Z" fill="white"/>
</g>
</svg>
