<svg width="36" height="34" viewBox="0 0 36 34" fill="none" xmlns="http://www.w3.org/2000/svg">
<g id="Black">
<path id="Vector" d="M10.4768 0.940632C9.97754 1.00391 9.02832 1.2711 8.50801 1.48907C7.44629 1.93907 6.34941 2.80391 5.61113 3.78126C5.18223 4.34376 4.62676 5.47578 4.43691 6.15782C3.92363 8.02813 4.19082 10.0883 5.16113 11.7266C5.70957 12.6547 6.62363 13.625 7.36895 14.068C7.49551 14.1453 7.57988 14.2297 7.54473 14.2578C7.5166 14.2859 7.28457 14.3773 7.03145 14.4688C4.05723 15.5094 1.54707 18.0758 0.527539 21.1133C0.0423828 22.5828 0.0494141 22.4914 0.0212891 27.3641L-0.00683594 31.7867L0.175977 32.1523C0.274414 32.3563 0.464258 32.6094 0.597852 32.7078C1.11113 33.1016 1.1041 33.1016 5.21738 33.1016H9.01426L9.25332 32.8625C9.43613 32.6797 9.49238 32.5672 9.49238 32.3633C9.49238 32.1594 9.43613 32.0469 9.25332 31.8641L9.01426 31.625H7.7416H6.47598L6.45488 28.4891L6.43379 25.3531L6.20176 25.1492C5.88535 24.8609 5.48457 24.8609 5.19629 25.1492L4.99238 25.3531V28.4891V31.625H3.30488H1.61738L1.50488 31.4492C1.39941 31.2945 1.39238 30.9078 1.42754 27.4273C1.46973 23.1805 1.48379 23.0117 1.93379 21.6617C2.86895 18.8633 5.02754 16.7047 7.82598 15.7695C9.25332 15.2914 8.7541 15.3125 19.5541 15.3125H29.3205V16.9648V18.6172H25.3338C20.8689 18.6172 20.7564 18.6313 19.8775 19.0883C18.9564 19.5734 18.2533 20.4453 17.951 21.4719C17.8455 21.8445 17.8314 22.4 17.8033 26.7523L17.7822 31.625H16.383C15.5252 31.625 14.9205 31.6531 14.815 31.7023C14.5971 31.8008 14.4143 32.1172 14.4143 32.3984C14.4143 32.5602 14.4846 32.6938 14.6533 32.8625L14.8924 33.1016H24.7361C35.4447 33.1016 34.8611 33.1227 35.4025 32.7078C35.5361 32.6094 35.726 32.3563 35.8244 32.1523L36.0072 31.7867L35.9791 27.3641C35.958 23.1523 35.951 22.9133 35.8104 22.3086C35.5994 21.4297 35.3322 20.6633 34.9807 19.918L34.6783 19.2922L34.9385 18.9969C36.3939 17.3375 35.6416 14.6234 33.5533 13.9766C33.1455 13.85 32.8994 13.8359 30.9588 13.8359H28.8143L29.3205 13.3648C30.4385 12.3313 31.1768 11.0094 31.5143 9.44141C31.6619 8.75235 31.6197 7.17032 31.4439 6.425C30.8041 3.83047 28.7861 1.78438 26.2268 1.1375C23.7025 0.497662 21.0658 1.25001 19.2588 3.12735C18.7807 3.61954 18.3447 4.22422 18.0775 4.75157L17.9229 5.05391L17.5854 4.49844C17.1635 3.78828 17.051 3.64766 16.4322 3.02188C15.1385 1.7 13.4861 0.989849 11.6018 0.933598C11.1166 0.919537 10.6104 0.926567 10.4768 0.940632ZM12.8674 2.58594C14.4635 3.03594 15.8557 4.24532 16.5588 5.77813C16.9314 6.59375 17.0439 7.14219 17.0439 8.14063C17.0369 8.88594 17.0088 9.11797 16.8471 9.65235C16.0947 12.1484 13.901 13.7938 11.3205 13.7797C10.4064 13.7797 9.69629 13.6039 8.82441 13.175C7.64316 12.5844 6.84863 11.7758 6.25801 10.5664C5.7377 9.49063 5.56191 8.52735 5.69551 7.46563C5.99785 5.01875 7.79785 3.02891 10.1955 2.5086C10.9689 2.33985 12.101 2.36797 12.8674 2.58594ZM25.9455 2.58594C26.2338 2.67032 26.7611 2.88126 27.1057 3.06407C27.6189 3.33125 27.8721 3.52813 28.4486 4.09766C29.0744 4.72344 29.1939 4.87813 29.5174 5.53907C30.2416 7.0086 30.34 8.33047 29.8479 9.87735C29.2643 11.7195 27.6189 13.2102 25.6643 13.6602C24.926 13.8289 23.8221 13.8219 23.0979 13.632C19.8354 12.7883 17.9721 9.39922 19.0479 6.26328C19.6174 4.61094 20.9674 3.25391 22.6057 2.69141C23.6322 2.33985 24.933 2.29766 25.9455 2.58594ZM18.8439 12.5984C19.0408 12.8516 19.3994 13.2383 19.6385 13.4492L20.0744 13.8359H17.9158H15.7572L16.376 13.2172C16.9666 12.6336 17.5854 11.8039 17.7822 11.3117L17.8736 11.0938L18.176 11.6141C18.3377 11.9023 18.64 12.3453 18.8439 12.5984ZM33.2229 15.4461C34.1088 15.8469 34.4814 16.9227 34.0104 17.7172C33.5885 18.4344 33.1596 18.6102 31.8025 18.6172H30.7971V16.9648V15.3125H31.8729C32.7588 15.3125 32.9908 15.3406 33.2229 15.4461ZM33.6658 20.6352C33.8205 20.9797 34.0314 21.5211 34.1299 21.8375C34.5166 23.075 34.5307 23.2789 34.5729 27.4273C34.608 30.9078 34.601 31.2945 34.4955 31.4492L34.383 31.625H32.6955H31.008V28.4891V25.3531L30.8041 25.1492C30.5158 24.8609 30.115 24.8609 29.7986 25.1492L29.5666 25.3531L29.5455 28.4891L29.5244 31.625H24.3916H19.2588L19.2799 26.8297L19.301 22.0273L19.526 21.5563C19.7861 21.0008 20.1869 20.593 20.7283 20.3258L21.1291 20.1289L27.1057 20.0938C30.3963 20.0727 33.1455 20.0516 33.2299 20.0375C33.3494 20.0234 33.4268 20.1289 33.6658 20.6352Z" fill="#E91E63"/>
<path id="Vector_2" d="M11.5175 31.7586C11.0183 32.1594 11.18 32.9609 11.7917 33.0734C12.073 33.1227 12.4105 33.0031 12.5511 32.7922C12.7128 32.5672 12.6847 32.0891 12.4948 31.8711C12.2698 31.6039 11.7847 31.5547 11.5175 31.7586Z" fill="#E91E63"/>
</g>
</svg>
