<svg width="24" height="22" viewBox="0 0 24 22" fill="none" xmlns="http://www.w3.org/2000/svg">
<g id="Black">
<path id="Vector" d="M6.02936 0.83687C5.62347 0.973635 5.34112 1.1501 5.04994 1.44569C4.772 1.73246 4.52494 2.19128 4.44553 2.57952C4.41024 2.74275 4.397 4.48099 4.397 8.27069C4.397 14.2795 4.38818 14.0148 4.67053 14.5619C4.86024 14.9236 5.32347 15.378 5.68083 15.5545C6.25436 15.8369 5.86171 15.8236 13.8205 15.8236C18.8632 15.8236 21.1352 15.8104 21.3205 15.7751C21.7794 15.6913 22.1896 15.4663 22.547 15.1089C22.7191 14.9325 22.9132 14.6854 22.9794 14.5619C23.2441 14.0633 23.2352 14.3369 23.2352 8.25746C23.2352 3.76628 23.222 2.65452 23.1735 2.47805C22.9617 1.67511 22.2955 1.00893 21.4926 0.797164C21.3117 0.748634 19.8867 0.735399 13.7941 0.735399L6.31612 0.739811L6.02936 0.83687ZM21.0735 2.69863C21.3514 2.83981 21.3382 2.69863 21.3294 6.35157L21.3161 9.68246L19.9926 8.13393C18.3029 6.15746 18.2058 6.05158 17.8794 5.88393C17.6235 5.75158 17.5838 5.74275 17.1249 5.74275C16.6794 5.74275 16.622 5.75158 16.397 5.86628C16.2646 5.93687 16.097 6.04275 16.0264 6.10893C15.9558 6.17511 15.0999 7.1854 14.1249 8.35452L12.3514 10.4766L11.6941 9.81922C10.9749 9.09569 10.7764 8.96334 10.3088 8.89716C9.96906 8.84863 9.63377 8.90157 9.30289 9.05157C9.09112 9.14863 8.83083 9.38687 7.67053 10.5428L6.29406 11.9192L6.30289 7.44128C6.31612 3.26775 6.32053 2.95452 6.39112 2.85305C6.43524 2.79569 6.51465 2.72069 6.56759 2.68981C6.647 2.64569 8.16906 2.63687 13.8073 2.63246C20.1029 2.63246 20.9588 2.64128 21.0735 2.69863Z" fill="white"/>
<path id="Vector_2" d="M8.43379 3.6692C8.07644 3.81479 7.85585 3.97802 7.63526 4.25155C7.33967 4.61332 7.24703 4.90449 7.24261 5.45596C7.24261 5.88832 7.25144 5.94126 7.38379 6.2192C8.08967 7.70596 10.15 7.71038 10.847 6.22802C10.9485 6.00302 10.9838 5.85744 11.0014 5.57508C11.0544 4.76332 10.675 4.09714 9.96467 3.74861C9.65144 3.5942 9.60291 3.58096 9.16614 3.56773C8.74703 3.55891 8.67203 3.56773 8.43379 3.6692Z" fill="white"/>
<path id="Vector_3" d="M2.86613 7.63982C2.79113 7.88247 2.26171 9.60747 1.70142 11.4781L0.673479 14.8751L0.669067 15.431V15.9869L0.854361 16.3619C1.07495 16.8031 1.41907 17.156 1.81171 17.3413C2.08524 17.4692 16.7411 21.4089 17.1117 21.4531C17.6676 21.5192 18.3382 21.2898 18.7573 20.8928C19.1588 20.5134 19.2205 20.3722 19.7235 18.7795C19.9794 17.9678 20.1911 17.2795 20.1911 17.2486C20.1911 17.2045 18.6911 17.1913 13.0794 17.1825L5.96318 17.1692L5.63671 17.0678C4.97495 16.8648 4.47642 16.5604 4.0176 16.0795C3.58966 15.6339 3.33377 15.1839 3.13524 14.5222C3.06024 14.2795 3.05142 13.9575 3.02936 10.7281L3.0073 7.19865L2.86613 7.63982Z" fill="white"/>
</g>
</svg>
