<svg width="12" height="12" viewBox="0 0 12 12" fill="none" xmlns="http://www.w3.org/2000/svg">
<g id="Icon/Outline/location-marker">
<g id="Icon">
<path d="M8.82843 8.32843C8.50863 8.64822 7.95053 9.20632 7.41413 9.74272C6.63308 10.5238 5.36694 10.5238 4.58589 9.74274C4.06024 9.21709 3.50996 8.66682 3.17157 8.32843C1.60948 6.76633 1.60948 4.23367 3.17157 2.67157C4.73367 1.10948 7.26633 1.10948 8.82843 2.67157C10.3905 4.23367 10.3905 6.76633 8.82843 8.32843Z" stroke="#7A7A7A" stroke-linecap="round" stroke-linejoin="round"/>
<path d="M7.5 5.5C7.5 6.32843 6.82843 7 6 7C5.17157 7 4.5 6.32843 4.5 5.5C4.5 4.67157 5.17157 4 6 4C6.82843 4 7.5 4.67157 7.5 5.5Z" stroke="#7A7A7A" stroke-linecap="round" stroke-linejoin="round"/>
</g>
</g>
</svg>
