<svg width="36" height="36" viewBox="0 0 36 36" fill="none" xmlns="http://www.w3.org/2000/svg">
<g id="Black">
<path id="Vector" d="M25.5021 0.147655C23.2521 0.696093 21.4521 2.55234 20.9951 4.79531C20.8545 5.48437 20.8545 6.67265 20.9951 7.36875C21.0514 7.66406 21.2061 8.14922 21.3326 8.4375C21.5717 9.00703 26.36 17.1703 26.585 17.3953C26.7748 17.5992 27.1686 17.5781 27.3795 17.3672C27.5834 17.1562 32.3576 9.07031 32.5967 8.54297C32.9342 7.76953 33.0748 7.0664 33.0748 6.08203C33.0748 4.69687 32.7654 3.69141 31.985 2.55937C31.1412 1.34297 29.735 0.407812 28.2725 0.0984364C27.5904 -0.0421886 26.1771 -0.0210953 25.5021 0.147655ZM28.1248 1.30781C29.7561 1.67344 31.1201 2.96015 31.6896 4.67578C31.8443 5.14687 31.8725 5.36484 31.8725 6.04687C31.8795 6.96797 31.76 7.50234 31.3943 8.22656C31.1764 8.6625 27.1053 15.5953 27.0139 15.6937C26.9365 15.7781 22.5068 8.21953 22.3029 7.65C22.1342 7.18594 22.1131 7.04531 22.1131 6.11719C22.1131 5.18906 22.1342 5.04844 22.3029 4.56328C22.5842 3.76875 22.9498 3.19219 23.5545 2.60156C24.1592 2.00391 24.6584 1.68047 25.3686 1.43437C26.2545 1.125 27.1193 1.08984 28.1248 1.30781Z" fill="#E91E63"/>
<path id="Vector_2" d="M26.1421 2.91797C25.9593 2.96719 25.664 3.07969 25.4742 3.17109C25.0101 3.38906 24.2578 4.1625 24.0328 4.64062C23.2031 6.39844 23.9976 8.4375 25.7906 9.15469C26.1281 9.28828 26.3249 9.31641 26.9999 9.31641C27.7874 9.31641 27.8226 9.30937 28.3359 9.06328C29.6578 8.42344 30.2906 7.36875 30.2203 5.89219C30.1992 5.30859 30.164 5.16797 29.932 4.68281C29.3765 3.51562 28.2304 2.79844 26.9296 2.81953C26.6765 2.81953 26.3249 2.86875 26.1421 2.91797ZM27.6117 4.11328C28.0335 4.23984 28.5468 4.66875 28.807 5.11172C29.0882 5.59687 29.1234 6.38437 28.8843 6.89766C28.5398 7.64297 27.914 8.08594 27.1335 8.14219C26.5289 8.18437 26.0648 8.02969 25.6289 7.65C24.4124 6.58125 24.7992 4.66172 26.346 4.10625C26.6976 3.97969 27.1757 3.98672 27.6117 4.11328Z" fill="#E91E63"/>
<path id="Vector_3" d="M9.79453 6.81328C9.24609 6.94687 8.71875 7.425 8.51484 7.9664C8.45859 8.10703 8.4375 12.0867 8.4375 20.7352V33.307L8.58516 33.4969L8.72578 33.6797H18H27.2742L27.4148 33.4969C27.5625 33.307 27.5625 33.2859 27.5625 26.3531V19.3992L27.3867 19.2305C27.0984 18.9352 26.6484 19.0125 26.4516 19.3852C26.3883 19.4977 26.3672 21.2344 26.3672 26.0437V32.5547H24.75H23.1398L23.1187 29.0531C23.0977 25.9102 23.0836 25.5375 22.9781 25.3406C22.7602 24.9398 22.4789 24.6586 22.1133 24.4969L21.7617 24.3281H18C14.3648 24.3281 14.2242 24.3352 13.9219 24.4758C13.5352 24.6516 13.2539 24.9117 13.057 25.2773C12.9023 25.5516 12.9023 25.6289 12.8812 29.0531L12.8602 32.5547H11.25H9.63281V20.4398V8.31797L9.81562 8.14922L9.99844 7.98047L14.6812 7.95937L19.3641 7.94531L19.5258 7.79062C19.7297 7.60078 19.7437 7.18593 19.5539 6.9539L19.4203 6.78515L14.7164 6.77109C12.1359 6.77109 9.92109 6.78515 9.79453 6.81328ZM17.3672 29.0039V32.5547H15.7148H14.0625V29.2781C14.0625 26.9578 14.0836 25.9594 14.1398 25.8539C14.3227 25.5023 14.4984 25.4672 16.0523 25.4602L17.3672 25.4531V29.0039ZM21.5156 25.5445C21.6492 25.5937 21.7969 25.7062 21.8461 25.8047C21.9164 25.9383 21.9375 26.7609 21.9375 29.2641V32.5547H20.25H18.5625V29.0039V25.4531L19.9195 25.4602C20.7703 25.4602 21.3609 25.4953 21.5156 25.5445Z" fill="#E91E63"/>
<path id="Vector_4" d="M12.1922 10.0125C12.0727 10.0687 11.9531 10.1602 11.925 10.2305C11.9039 10.2938 11.8828 11.2148 11.8828 12.2766V14.2102L12.0586 14.3789L12.2273 14.5547H14.2313C15.5531 14.5547 16.2914 14.5266 16.4039 14.4773C16.7062 14.3367 16.7344 14.168 16.7344 12.1992V10.343L16.5656 10.1461L16.3969 9.94922L14.4 9.93516C12.832 9.92109 12.3609 9.93516 12.1922 10.0125ZM15.5391 12.2344V13.3594H14.3086H13.0781V12.2344V11.1094H14.3086H15.5391V12.2344Z" fill="#E91E63"/>
<path id="Vector_5" d="M19.7086 9.97031C19.6172 9.98437 19.4836 10.0758 19.4062 10.1742C19.2727 10.343 19.2656 10.4555 19.2656 12.2062C19.2656 13.4086 19.2937 14.1187 19.343 14.2242C19.4695 14.5055 19.6875 14.5547 20.8547 14.5547C21.9164 14.5547 21.9516 14.5477 22.1133 14.3789C22.2328 14.2664 22.2891 14.1328 22.2891 13.957C22.2891 13.7812 22.2328 13.6477 22.1133 13.5352C21.9516 13.3734 21.8953 13.3594 21.1992 13.3594H20.4609V11.8547C20.4609 10.4695 20.4539 10.343 20.3203 10.1812C20.1797 9.99844 19.9828 9.92812 19.7086 9.97031Z" fill="#E91E63"/>
<path id="Vector_6" d="M12.1852 16.8047C12.1008 16.8398 12.0023 16.9313 11.9602 17.0086C11.9109 17.093 11.8828 17.8453 11.8828 19.0758C11.8828 20.8758 11.8898 21.0164 12.0164 21.1711L12.15 21.3398L14.2313 21.3609L16.3195 21.382L16.5234 21.1711L16.7344 20.9672V19.0547V17.1422L16.5305 16.9383L16.3266 16.7344L14.3297 16.7414C13.2328 16.7414 12.2695 16.7695 12.1852 16.8047ZM15.5391 19.0547V20.1797H14.3086H13.0781V19.0547V17.9297H14.3086H15.5391V19.0547Z" fill="#E91E63"/>
<path id="Vector_7" d="M19.4766 16.9383L19.2656 17.1422V19.0547V20.9672L19.4766 21.1711L19.6805 21.382L21.7687 21.3609L23.85 21.3398L23.9836 21.1711C24.1102 21.0164 24.1172 20.8758 24.1172 19.0547C24.1172 17.2336 24.1102 17.093 23.9836 16.9383L23.85 16.7695L21.7687 16.7484L19.6805 16.7273L19.4766 16.9383ZM22.9219 19.0547V20.1797H21.6914H20.4609V19.0547V17.9297H21.6914H22.9219V19.0547Z" fill="#E91E63"/>
<path id="Vector_8" d="M4.02886 26.2266C3.86714 26.2617 3.64917 26.332 3.53667 26.3883C3.03042 26.6625 2.92495 26.8523 1.46245 30.382C0.0632344 33.75 0.0491719 33.7922 0.0421406 34.3195C0.0351094 34.7977 0.0562031 34.8891 0.246047 35.1984C0.379641 35.4094 0.590578 35.6203 0.801516 35.7539L1.14605 35.9648H18H34.8539L35.1984 35.7539C35.8523 35.3461 36.1546 34.5164 35.9085 33.7852C35.8453 33.6023 35.1984 32.0063 34.4742 30.2414C33.0257 26.7258 32.9414 26.5711 32.2875 26.318C32.0132 26.2125 31.739 26.1914 30.6351 26.1914H29.3062L29.1304 26.3953C28.9898 26.5641 28.9617 26.6484 28.9968 26.8523C29.0671 27.2953 29.1164 27.3094 30.5507 27.3516C31.732 27.3867 31.8585 27.4008 31.9851 27.5273C32.1328 27.682 34.8046 34.1508 34.8046 34.3617C34.8046 34.4391 34.7203 34.5727 34.6218 34.6711L34.439 34.8398H18H1.56089L1.37808 34.6711C1.27964 34.5727 1.19527 34.4391 1.19527 34.3688C1.19527 34.1648 3.86714 27.6891 4.02183 27.5273C4.14136 27.4008 4.26792 27.3867 5.43511 27.3516C6.13823 27.3305 6.74995 27.2953 6.79917 27.2602C6.84136 27.232 6.9187 27.0984 6.96089 26.9648C7.05933 26.6695 6.94683 26.3813 6.67964 26.2477C6.47573 26.1492 4.52105 26.1352 4.02886 26.2266Z" fill="#E91E63"/>
</g>
</svg>
