<svg width="14" height="14" viewBox="0 0 14 14" fill="none" xmlns="http://www.w3.org/2000/svg">
<g id="Yellow">
<path id="Vector" d="M6.86051 0.678548L6.86052 0.678577L6.859 0.67912C6.8571 0.68012 6.84944 0.684182 6.83645 0.693487C6.81661 0.707698 6.7925 0.728331 6.7676 0.754347C6.74282 0.78023 6.72122 0.807302 6.70466 0.832137C6.68885 0.855847 6.68176 0.871324 6.67966 0.876559C6.58384 1.15384 6.83548 1.41996 7.13029 1.32127C7.14429 1.31603 7.18884 1.29217 7.2408 1.23976C7.29296 1.18716 7.31735 1.1413 7.32315 1.12487C7.36403 1.0003 7.32892 0.841507 7.24344 0.747077C7.22729 0.731431 7.17307 0.694786 7.07821 0.674616C6.98234 0.654233 6.90221 0.663184 6.86051 0.678548Z" stroke="white"/>
<path id="Vector_2" d="M7.2735 3.32698C7.3516 3.36783 7.45021 3.44317 7.82957 3.93938C7.87454 3.99918 7.92699 4.06211 7.94299 4.08132L7.94401 4.08254L7.95853 4.09997L7.96119 4.10262C7.96251 4.10422 7.96403 4.10604 7.96573 4.1081L8.01592 4.16949C8.05951 4.2231 8.12084 4.29904 8.19568 4.39201C8.34522 4.57777 8.5472 4.82966 8.76578 5.10288L7.2735 3.32698ZM7.2735 3.32698C7.13597 3.2591 6.99094 3.25019 6.92331 3.26654C6.79855 3.29794 6.68536 3.36244 6.5296 3.56777L6.52961 3.56778L6.52732 3.57075C6.37628 3.76677 5.04469 5.43354 4.68324 5.87357L4.68245 5.87453C4.66659 5.89374 4.65469 5.90926 4.63927 5.92936C4.63445 5.93565 4.62928 5.94238 4.62355 5.94982L4.62297 5.95057C4.60406 5.97508 4.56749 6.02248 4.52116 6.06718C4.46782 6.11865 4.39519 6.17352 4.2979 6.21128C4.20349 6.24793 4.11335 6.25776 4.03789 6.25776C3.90712 6.25776 3.76079 6.22608 3.62458 6.19426C3.53501 6.17334 3.42322 6.14547 3.28954 6.11215C3.20402 6.09083 3.10955 6.06728 3.0062 6.04188C2.51711 5.92283 2.29816 5.87253 2.16345 5.85668C2.08193 5.84709 2.06464 5.84995 1.9622 5.88111C1.76233 5.94304 1.625 6.11987 1.625 6.3562C1.625 6.37426 1.62837 6.42863 1.6647 6.58456C1.70025 6.73721 1.76043 6.95938 1.8588 7.30293L1.85881 7.30293L1.85935 7.30485C1.98338 7.74458 2.2144 8.55879 2.39846 9.20751C2.41822 9.27715 2.43744 9.34489 2.45593 9.41005C2.55066 9.74237 2.64282 10.0568 2.7149 10.295C2.75103 10.4144 2.78157 10.5128 2.80459 10.5842C2.81881 10.6282 2.82722 10.6524 2.83077 10.6628C2.83264 10.6654 2.83506 10.6686 2.83809 10.6723C2.84741 10.6838 2.8595 10.6963 2.87327 10.7081C2.88029 10.7141 2.88693 10.7192 2.89291 10.7235C2.89852 10.7237 2.90454 10.7239 2.91098 10.7242C2.97489 10.7266 3.06704 10.7289 3.18521 10.731C3.42079 10.7354 3.75025 10.739 4.14347 10.742C4.92939 10.7478 5.96439 10.7507 7 10.7507C8.03561 10.7507 9.07061 10.7478 9.85653 10.742C10.2497 10.739 10.5792 10.7354 10.8148 10.731C10.933 10.7289 11.0251 10.7266 11.089 10.7242C11.0947 10.724 11.1 10.7237 11.105 10.7235C11.1127 10.718 11.1214 10.7111 11.1305 10.703C11.1466 10.6886 11.1599 10.6742 11.1691 10.6623C11.1719 10.6587 11.1739 10.6559 11.1752 10.654C11.1767 10.6497 11.1786 10.6439 11.1812 10.6361C11.1902 10.6087 11.2027 10.5692 11.2186 10.5177C11.2502 10.4151 11.2929 10.2725 11.3438 10.0996C11.4456 9.75429 11.5788 9.29335 11.7191 8.80049C11.9995 7.81614 12.2701 6.87524 12.3188 6.71609L12.319 6.71541C12.398 6.45866 12.3883 6.28129 12.3514 6.17056C12.3184 6.07152 12.2519 5.98713 12.1183 5.92271C11.9787 5.85615 11.9651 5.85695 11.9169 5.85978C11.9151 5.85988 11.9133 5.85998 11.9115 5.86009C11.7901 5.86696 11.588 5.91137 11.0854 6.03539L11.0854 6.03541L11.0816 6.03632C10.9199 6.07485 10.7651 6.11215 10.6288 6.14499C10.5665 6.16 10.5081 6.17407 10.4547 6.18691L10.4318 6.1924C10.3041 6.22307 10.1761 6.25384 10.1169 6.26437L10.1169 6.26443C9.9235 6.29807 9.76972 6.22587 9.67175 6.15499C9.5947 6.09924 9.52384 6.02429 9.46217 5.9552C9.33043 5.80764 9.11947 5.54615 8.76581 5.10292L7.2735 3.32698Z" stroke="white"/>
<path id="Vector_3" d="M1.08157 4.06795L1.08135 4.0682C1.03266 4.12036 1.00061 4.13847 0.978146 4.14764C0.953687 4.15763 0.908975 4.16975 0.818689 4.16877C0.626665 4.16605 0.502003 4.05051 0.500002 3.83582C0.500395 3.67202 0.559052 3.58793 0.678533 3.52754L1.08157 4.06795ZM1.08157 4.06795C1.21024 3.93029 1.2161 3.73081 1.07387 3.57732L1.07385 3.57733M1.08157 4.06795L1.07385 3.57733M1.07385 3.57733L1.07065 3.57382M1.07385 3.57733L1.07065 3.57382M1.07065 3.57382C1.05717 3.55898 1.00344 3.52026 0.902988 3.50443M1.07065 3.57382L0.902988 3.50443M0.902988 3.50443C0.804934 3.48897 0.722498 3.50536 0.678609 3.5275L0.902988 3.50443Z" stroke="white"/>
<path id="Vector_4" d="M13.0078 3.52692L13.0078 3.52692L13.0058 3.52785C12.8221 3.6139 12.7549 3.87918 12.9071 4.05467C13.0308 4.19414 13.2192 4.2214 13.3934 4.0909C13.4505 4.04786 13.5017 3.95859 13.504 3.8359C13.5063 3.71393 13.4592 3.62464 13.4058 3.58068C13.342 3.53029 13.3141 3.51852 13.3005 3.51382C13.2863 3.50889 13.254 3.50005 13.1656 3.50005C13.1067 3.50005 13.0788 3.50371 13.0637 3.50674C13.0516 3.50916 13.0366 3.51325 13.0078 3.52692Z" stroke="white"/>
<path id="Vector_5" d="M2.90528 13.1472C2.84801 13.1054 2.81291 13.0311 2.8125 13.0005C2.81256 13.0002 2.81322 12.9912 2.8194 12.974C2.82644 12.9545 2.83835 12.9309 2.85533 12.9069C2.8723 12.8829 2.89089 12.8634 2.90773 12.8496C2.91024 12.8476 2.91258 12.8457 2.91476 12.8441C2.93266 12.8426 2.95993 12.8407 2.99908 12.8388C3.11605 12.8331 3.30364 12.8285 3.60465 12.825C4.20469 12.818 5.2305 12.8156 6.9875 12.8156H6.98785C7.18818 12.8155 7.37901 12.8153 7.56081 12.8152C9.43236 12.8137 10.3464 12.813 10.8161 12.8328C10.9742 12.8394 11.0598 12.8481 11.103 12.854C11.1048 12.8557 11.1067 12.8575 11.1086 12.8594L11.1118 12.8626L11.1118 12.8626C11.1593 12.9085 11.1767 12.9593 11.1774 13.0022C11.1782 13.045 11.163 13.0893 11.1246 13.1277C11.1185 13.1338 11.113 13.1393 11.108 13.1442C11.066 13.1504 10.9797 13.1601 10.8165 13.1673C10.3382 13.1885 9.40526 13.1865 7.48471 13.1824C7.30997 13.182 7.12706 13.1817 6.93557 13.1813L2.90528 13.1472ZM2.90528 13.1472C2.90683 13.1473 2.90845 13.1475 2.91014 13.1476C2.98386 13.1542 3.12306 13.16 3.39956 13.1645C3.94587 13.1734 4.96925 13.1766 6.9354 13.1813L2.90528 13.1472Z" stroke="white"/>
</g>
</svg>
