<svg width="14" height="14" viewBox="0 0 14 14" fill="none" xmlns="http://www.w3.org/2000/svg">
<g id="Yellow">
<path id="Vector" d="M6.68766 0.209376C6.50328 0.275002 6.28141 0.509376 6.20953 0.706251C5.96891 1.38438 6.60641 2.02813 7.29391 1.79375C7.50016 1.72188 7.72516 1.49688 7.79703 1.28438C7.89703 0.984376 7.81891 0.631251 7.60641 0.403126C7.40328 0.190626 6.98453 0.100001 6.68766 0.209376Z" fill="#FFC60B"/>
<path id="Vector_2" d="M6.80312 2.7812C6.54062 2.84683 6.3375 2.9937 6.13125 3.26558C5.98437 3.4562 4.65625 5.1187 4.29687 5.5562C4.075 5.82495 4.21875 5.82495 3.125 5.5562C2.175 5.32495 2.10312 5.31558 1.81562 5.40308C1.4 5.5312 1.125 5.9062 1.125 6.3562C1.125 6.50933 1.18125 6.75308 1.37812 7.44058C1.51562 7.92808 1.78437 8.87495 1.975 9.54683C2.16562 10.2156 2.34687 10.8156 2.37812 10.8781C2.45312 11.0281 2.625 11.175 2.77187 11.2156C2.9375 11.2625 11.0625 11.2625 11.2281 11.2156C11.3781 11.175 11.5687 11.0062 11.6344 10.8531C11.6656 10.7875 11.9187 9.92495 12.2 8.93745C12.4812 7.94995 12.75 7.01558 12.7969 6.86245C12.9969 6.21245 12.8281 5.70933 12.3344 5.47183C11.9937 5.30933 11.9281 5.31245 10.9656 5.54995C10.4937 5.66245 10.075 5.76558 10.0312 5.77183C9.95937 5.78433 9.87187 5.68745 9.15625 4.79058C8.71875 4.2437 8.34687 3.7812 8.32812 3.76245C8.3125 3.7437 8.26562 3.68745 8.22812 3.63745C7.85312 3.14683 7.69375 2.9812 7.5 2.8812C7.275 2.7687 7.00625 2.7312 6.80312 2.7812Z" fill="#FFC60B"/>
<path id="Vector_3" d="M0.453125 3.08123C0.15625 3.23123 0 3.49373 0 3.83748C0.003125 4.31873 0.340625 4.66248 0.8125 4.66873C1.0875 4.67185 1.27188 4.59685 1.44687 4.40935C1.75937 4.07498 1.75625 3.5781 1.44063 3.23748C1.22188 2.99685 0.7625 2.92498 0.453125 3.08123Z" fill="#FFC60B"/>
<path id="Vector_4" d="M12.7937 3.07505C12.3 3.3063 12.1656 3.96567 12.5312 4.38442C12.8344 4.72817 13.3187 4.77192 13.6937 4.49067C14.0969 4.18755 14.1094 3.5063 13.7187 3.19067C13.5375 3.04692 13.4062 3.00005 13.1656 3.00005C13.0094 3.00005 12.9125 3.0188 12.7937 3.07505Z" fill="#FFC60B"/>
<path id="Vector_5" d="M2.7625 12.3625C2.52188 12.45 2.3125 12.7438 2.3125 13C2.3125 13.2406 2.48125 13.5 2.7125 13.6125C2.82188 13.6688 3.00625 13.6719 6.93438 13.6813C11.5063 13.6906 11.2594 13.7 11.4781 13.4813C11.75 13.2094 11.7438 12.7781 11.4594 12.5031C11.2563 12.3031 11.4938 12.3125 6.9875 12.3156C3.475 12.3156 2.87187 12.325 2.7625 12.3625Z" fill="#FFC60B"/>
</g>
</svg>
