<svg width="36" height="28" viewBox="0 0 36 28" fill="none" xmlns="http://www.w3.org/2000/svg">
<g id="Black">
<path id="Vector" d="M7.69941 0.633596C6.01895 1.04141 4.6127 2.27188 3.95879 3.875C3.21348 5.71719 3.62129 8.07969 4.91504 9.45781C5.05566 9.60547 5.14004 9.73906 5.09785 9.75313C4.76738 9.87969 3.75488 10.5336 3.24863 10.9414C1.72988 12.193 0.731445 13.7891 0.204102 15.8281C0.0564453 16.3836 0.0423828 16.6227 0.0212891 19.0977L-0.00683594 21.7695L0.175977 21.9453L0.36582 22.1211L3.44551 22.1422L6.53223 22.1633L6.55332 24.6523L6.57441 27.1344L6.74316 27.3172L6.91191 27.5H18.0002H29.0885L29.2572 27.3172L29.426 27.1344L29.4471 24.6523L29.4682 22.1633L32.5549 22.1422L35.6346 22.1211L35.8174 21.9523L36.0002 21.7836V19.4C36.0002 17.0516 35.958 16.3977 35.74 15.6172C35.0791 13.1844 33.5111 11.1664 31.3947 10.0203C31.1275 9.87969 30.8885 9.7461 30.8744 9.73203C30.8604 9.725 30.9729 9.57734 31.1205 9.41563C32.4002 8.03047 32.7799 5.71016 32.0416 3.875C31.3807 2.24375 29.9182 0.992189 28.2166 0.612503C27.4994 0.450785 26.3885 0.464846 25.6994 0.640627C24.9963 0.823441 24.2158 1.175 24.04 1.4C23.7236 1.80782 23.9979 2.39844 24.5041 2.39844C24.6377 2.39844 24.94 2.30703 25.165 2.19453C26.7471 1.39297 28.6455 1.70938 29.9252 2.98907C30.7971 3.86094 31.2119 4.95782 31.1275 6.18125C31.008 7.93203 29.8619 9.35938 28.1463 9.89375C27.633 10.0484 26.7611 10.0836 26.1424 9.9711C25.7135 9.89375 25.5658 9.89375 25.3971 9.95703C25.0244 10.1188 24.933 10.6672 25.2354 10.9695C25.4393 11.1734 26.1072 11.293 27.0354 11.293C27.9775 11.2859 28.4979 11.1805 29.2432 10.8289L29.7002 10.618L30.3682 10.9414C32.3299 11.8906 33.7994 13.5922 34.4182 15.6383C34.6924 16.5523 34.7346 17.0094 34.7346 19.0133V20.8906L32.0486 20.8766L29.3697 20.8555L29.2361 20.0891C29.0041 18.7109 28.3713 17.0938 27.5768 15.8633C26.5361 14.2461 24.7361 12.6359 23.1541 11.8977L22.7955 11.7289L23.2455 11.1453C23.7588 10.4633 24.1807 9.63359 24.4127 8.83203C24.5533 8.33985 24.5744 8.12188 24.5674 7.07422C24.5674 5.98438 24.5463 5.82266 24.3775 5.26016C23.6955 3.04531 22.0924 1.43516 19.8635 0.732035C19.2729 0.549221 19.1533 0.535158 18.0002 0.535158C16.84 0.535158 16.7346 0.549221 16.1369 0.739065C13.901 1.44922 12.2979 3.04531 11.6299 5.2461C11.4541 5.82266 11.433 5.97735 11.433 7.07422C11.426 8.12188 11.4471 8.33985 11.5877 8.83203C11.8197 9.63359 12.2416 10.4633 12.7619 11.1453L13.2049 11.7359L12.9166 11.8625C12.7549 11.9398 12.3752 12.1438 12.0729 12.3266C9.9916 13.5922 8.34629 15.5047 7.4252 17.7406C7.15801 18.3945 6.79238 19.7164 6.71504 20.293C6.63066 20.9539 6.94004 20.8906 3.92363 20.8906H1.25176L1.28691 18.725C1.31504 16.6438 1.32207 16.5453 1.50488 15.9055C1.8916 14.5484 2.54551 13.4234 3.51582 12.4531C4.19785 11.7781 4.86582 11.3 5.72363 10.8992L6.31426 10.625L6.75723 10.8359C7.50254 11.1805 8.02988 11.2859 8.96504 11.293C9.89316 11.293 10.5611 11.1734 10.765 10.9695C11.0674 10.6672 10.976 10.1188 10.6033 9.95703C10.4416 9.89375 10.2939 9.89375 9.89316 9.96406C8.89473 10.1398 8.03691 10.0414 7.23535 9.64063C5.80801 8.93047 4.97832 7.7211 4.87285 6.18125C4.8166 5.38672 4.9291 4.83828 5.2877 4.08594C5.80098 3.01719 6.83457 2.17344 7.99473 1.8711C8.8666 1.6461 10.0057 1.77266 10.8354 2.19453C11.0604 2.30703 11.3627 2.39844 11.4963 2.39844C12.0025 2.39844 12.2768 1.80782 11.9604 1.4C11.7846 1.175 11.0041 0.823441 10.301 0.640627C9.59785 0.457815 8.40957 0.457815 7.69941 0.633596ZM19.5471 1.97656C21.0658 2.48985 22.1064 3.38985 22.7744 4.73985C23.808 6.84219 23.4354 9.16953 21.7971 10.843C21.1854 11.4617 20.5033 11.8906 19.6314 12.193C19.0619 12.3969 18.9564 12.4109 18.0002 12.4109C17.0439 12.4109 16.9385 12.3969 16.3689 12.193C14.808 11.6516 13.6197 10.5406 13.0291 9.07813C12.4666 7.67188 12.5369 6.1461 13.226 4.73985C13.8939 3.38281 14.9908 2.44766 16.4533 1.9836C17.1072 1.77969 17.1705 1.77266 18.176 1.80078C18.8932 1.81485 19.1885 1.85703 19.5471 1.97656ZM14.9275 12.9664C15.94 13.4867 16.8822 13.7188 18.0002 13.7188C19.1322 13.7188 19.99 13.5078 21.0729 12.9664L21.7197 12.643L22.3385 12.9383C25.2072 14.3164 27.3166 16.9953 27.9494 20.075C28.1182 20.9258 28.1955 22.1492 28.1955 24.2797V26.2344H17.9932H7.78379L7.82598 23.682C7.8541 21.8398 7.88926 20.9609 7.97363 20.5039C8.54316 17.2133 10.5189 14.5344 13.465 13.0508C13.8939 12.8398 14.2596 12.6641 14.2877 12.6641C14.3158 12.6641 14.6041 12.7977 14.9275 12.9664Z" fill="#E91E63"/>
</g>
</svg>
