<svg width="16" height="14" viewBox="0 0 16 14" fill="none" xmlns="http://www.w3.org/2000/svg">
<g id="Black">
<path id="Vector" d="M5.95937 0.36875C5.83125 0.428124 0.15625 5.9125 0.059375 6.075C0.01875 6.14062 0 6.23125 0 6.34687C0 6.49062 0.015625 6.54375 0.084375 6.63438C0.259375 6.8625 5.85625 12.2594 5.96563 12.3031C6.10625 12.3625 6.35313 12.3406 6.4625 12.2594C6.50938 12.2281 6.57812 12.1375 6.61875 12.0625C6.6875 11.925 6.6875 11.9156 6.6875 10.4625V9H7.07188C8.825 9.00312 10.0406 9.25625 11.3281 9.8875C12.2125 10.3219 12.9375 10.8406 13.625 11.5312C14.0781 11.9875 14.4313 12.4312 14.7625 12.9563C15.2063 13.6594 15.2156 13.6719 15.5031 13.6719C15.7063 13.6719 15.8094 13.6156 15.9281 13.4375C15.9938 13.3438 16 13.3 16 12.9094C16 12.675 15.9781 12.3031 15.9531 12.0812C15.7 9.93125 14.7594 7.98438 13.2344 6.45312C11.5781 4.79062 9.3875 3.80312 7.05625 3.66875L6.6875 3.64687V2.1875V0.728125L6.61562 0.59375C6.56563 0.5 6.5 0.434375 6.40625 0.384375C6.24688 0.3 6.12188 0.29375 5.95937 0.36875Z" fill="white"/>
</g>
</svg>
