<svg width="36" height="36" viewBox="0 0 36 36" fill="none" xmlns="http://www.w3.org/2000/svg">
<g id="Black">
<path id="Vector" d="M16.1719 0.0421867C13.8727 0.316406 11.9602 0.871876 10.0195 1.82812C5.25234 4.16953 1.75078 8.51484 0.492188 13.6547C0.0914062 15.293 0.0351562 15.8203 0.0351562 18C0.0351562 20.1797 0.0914062 20.7141 0.492188 22.3453C2.1375 29.025 7.59375 34.2844 14.2875 35.6555C16.0594 36.0141 18.4781 36.1125 20.25 35.8945C28.4062 34.8891 34.882 28.4062 35.8945 20.25C36.0352 19.0969 36.0352 16.8609 35.8945 15.7711C35.6766 14.1047 35.2828 12.593 34.6992 11.1656C34.1297 9.77343 33.4195 8.50078 33.1383 8.37422C32.632 8.14218 32.0625 8.48672 32.0625 9.02109C32.0625 9.10546 32.3578 9.7664 32.7164 10.4766C33.9891 12.9867 34.5234 15.2156 34.5234 17.9719C34.5234 19.3922 34.4461 20.2289 34.2 21.4102C33.5391 24.5602 31.9852 27.4219 29.7141 29.6648C29.2711 30.1078 29.032 30.2976 29.018 30.2273C28.2516 27.682 27.4711 26.2828 25.9734 24.7922C23.8289 22.6406 21.0797 21.5156 18 21.5156C14.9203 21.5156 12.1711 22.6406 10.0266 24.7922C8.52891 26.2828 7.74844 27.682 6.98203 30.2273C6.96797 30.2976 6.72891 30.1078 6.28594 29.6648C3.66328 27.0703 1.96875 23.5687 1.54688 19.8352C1.42031 18.7594 1.49062 16.2844 1.67344 15.2578C1.98984 13.5211 2.38359 12.3117 3.16406 10.7156C5.61797 5.68828 10.4906 2.23594 16.1367 1.54688C16.9383 1.44844 19.0547 1.44844 19.8703 1.54688C22.7461 1.89141 25.418 2.93906 27.7664 4.63359C28.2516 4.98516 28.4062 5.0625 28.6312 5.0625C29.025 5.0625 29.3203 4.76015 29.3203 4.37344C29.3203 4.21875 29.2992 4.03594 29.2781 3.97969C29.25 3.9164 28.9125 3.63515 28.5187 3.34687C26.2898 1.73672 23.8641 0.717186 20.9742 0.203907C20.2922 0.077343 19.8141 0.0492172 18.2812 0.0351562C17.2547 0.0210915 16.3055 0.0281258 16.1719 0.0421867ZM19.3711 23.0695C22.95 23.5266 26.093 26.1211 27.2812 29.6016C27.4219 30.0234 27.6961 31.1484 27.7031 31.3312C27.7031 31.5141 25.9664 32.5687 24.8062 33.0891C22.6406 34.0664 20.468 34.5234 18.0352 34.5305C15.3211 34.5305 13.0148 33.9961 10.6594 32.8289C9.97734 32.4844 8.79609 31.7883 8.44453 31.5141L8.28281 31.3805L8.40234 30.7969C9.28125 26.5008 12.9234 23.3016 17.2617 23.0062C18.0562 22.95 18.5625 22.9641 19.3711 23.0695Z" fill="#E91E63"/>
<path id="Vector_2" d="M30.4172 5.94844C30.2695 6.09609 30.2344 6.20156 30.2344 6.46875C30.2344 6.73594 30.2695 6.84141 30.4172 6.98906C30.5648 7.13672 30.6703 7.17188 30.9375 7.17188C31.2047 7.17188 31.3102 7.13672 31.4578 6.98906C31.6055 6.84141 31.6406 6.73594 31.6406 6.46875C31.6406 6.20156 31.6055 6.09609 31.4578 5.94844C31.3102 5.80078 31.2047 5.76562 30.9375 5.76562C30.6703 5.76562 30.5648 5.80078 30.4172 5.94844Z" fill="#E91E63"/>
<path id="Vector_3" d="M16.4037 7.62889C14.1607 8.20545 12.41 9.97029 11.8404 12.2133C11.6014 13.1625 11.6014 14.4 11.8404 15.3492C12.417 17.6062 14.1748 19.364 16.4318 19.9406C17.3811 20.1797 18.6186 20.1797 19.5678 19.9406C21.8248 19.364 23.5826 17.6062 24.1592 15.3492C24.3982 14.4 24.3982 13.1625 24.1592 12.2133C23.5826 9.9492 21.8318 8.19842 19.5678 7.62186C18.6256 7.38279 17.3389 7.38983 16.4037 7.62889ZM19.1107 9.04217C19.9756 9.22498 20.6787 9.62576 21.417 10.364C22.4295 11.3836 22.8514 12.389 22.8514 13.7812C22.8514 15.1734 22.4295 16.1719 21.41 17.1984C20.4045 18.2039 19.385 18.6398 17.9998 18.6398C16.6217 18.6398 15.5951 18.2039 14.5826 17.1984C13.5701 16.1789 13.1482 15.1734 13.1482 13.7812C13.1482 12.389 13.5701 11.3836 14.5826 10.364C15.8623 9.09139 17.3037 8.66951 19.1107 9.04217Z" fill="#E91E63"/>
</g>
</svg>
