<svg width="24" height="24" viewBox="0 0 24 24" fill="none" xmlns="http://www.w3.org/2000/svg">
<g id="bi:send-fill" clip-path="url(#clip0_1031_758)">
<path id="Vector" d="M23.4818 0.843392L23.4818 0.843502L14.4818 23.3435L14.4818 23.3436C14.4647 23.3863 14.4361 23.4235 14.3993 23.451C14.3625 23.4786 14.3187 23.4954 14.2729 23.4997C14.2271 23.504 14.181 23.4956 14.1397 23.4753C14.0985 23.4552 14.0636 23.424 14.0389 23.3853C14.0388 23.3852 14.0388 23.3852 14.0388 23.3851L13.6493 22.7709L13.6197 22.7242L13.6164 22.721L8.87888 15.2748L8.81921 15.181L8.72542 15.1213L1.3498 10.4287L1.34812 10.4253L1.2308 10.3509L0.615797 9.96094L0.615275 9.96061C0.576327 9.93598 0.544944 9.90106 0.524595 9.85971C0.504245 9.81837 0.495721 9.7722 0.499963 9.72631C0.504205 9.68042 0.521049 9.6366 0.548635 9.59968C0.57622 9.56276 0.613472 9.53419 0.656275 9.51711L1.24492 9.2827H1.24682L1.33623 9.24693L23.1567 0.518434L23.1568 0.518392C23.2023 0.500206 23.252 0.495754 23.3 0.505588C23.3479 0.515421 23.3919 0.539107 23.4265 0.573711L23.7801 0.220158L23.4265 0.573714C23.4611 0.608317 23.4848 0.652313 23.4946 0.700251C23.5045 0.748189 23.5 0.79796 23.4818 0.843392ZM9.53364 15.3736L9.86825 15.8996L10.3091 15.4588L21.4036 4.3642H21.5369L21.6624 4.04949L22.3674 2.28249L22.7992 1.20041L21.7174 1.63293L19.9504 2.33943L19.8551 2.37755L19.7825 2.45014L8.54147 13.6911L8.10064 14.132L8.62667 14.4666L9.13367 14.7891L9.13396 14.7893C9.16497 14.809 9.19126 14.8353 9.21096 14.8663L9.21114 14.8666L9.53364 15.3736Z" fill="#E91E63" stroke="#E91E63"/>
</g>
<defs>
<clipPath id="clip0_1031_758">
<rect width="24" height="24" fill="white"/>
</clipPath>
</defs>
</svg>
