<svg width="26" height="36" viewBox="0 0 26 36" fill="none" xmlns="http://www.w3.org/2000/svg">
<g id="Black">
<path id="Vector" d="M9.55462 0.133595C6.74915 0.745312 4.52728 2.65078 3.57103 5.27344C3.17025 6.38438 3.14915 6.56719 3.08587 9.5625C3.03665 12.2344 3.02962 12.368 2.85384 13.0289C2.65696 13.7602 2.27025 14.618 1.65853 15.6445C1.1804 16.4531 0.94134 17.0227 0.730402 17.8383C0.15384 20.0531 0.463215 22.3523 1.60931 24.3563C1.97493 24.9961 2.79759 26.0156 3.25462 26.3883L3.58509 26.6625L3.29681 26.8664C2.48821 27.45 1.6304 28.582 1.26478 29.5312C0.878058 30.5227 0.835871 30.9234 0.835871 33.3844C0.835871 35.55 0.842902 35.6344 0.983527 35.8172C1.09603 35.9578 1.18743 36 1.39837 36C2.09446 36 2.1015 35.9648 2.1015 33.3773C2.1015 31.4789 2.11556 31.1766 2.24212 30.6844C2.664 28.9969 3.86634 27.7031 5.53978 27.1406C5.88431 27.0281 7.04446 26.8594 8.14837 26.768C8.20462 26.768 9.25931 27.5414 10.4898 28.4977C12.5288 30.0797 12.7538 30.2344 12.9999 30.2344C13.239 30.2344 13.4148 30.1219 14.596 29.2148C15.3202 28.6523 15.9742 28.1039 16.0445 27.9984C16.3046 27.6047 16.0023 27.0703 15.5242 27.0703C15.2499 27.0703 14.9687 27.2602 13.5484 28.3852C13.2882 28.5891 13.0421 28.7578 13.007 28.7578C12.9648 28.7578 12.1492 28.1461 11.1859 27.4008L9.43509 26.0437L9.77962 25.6992C10.1874 25.2844 10.5742 24.5391 10.7007 23.9344L10.7851 23.5125L11.1367 23.6039C12.2617 23.8922 13.7874 23.8711 15.046 23.5547C17.6124 22.9008 19.7921 20.8688 20.6288 18.3516C20.9945 17.2617 21.0296 16.9383 21.0648 14.2102C21.0929 12.3891 21.0788 11.5734 21.0226 11.3766C20.9171 11.025 20.6851 10.9125 20.1015 10.9195C18.8499 10.9336 17.9359 10.0688 17.8023 8.75391C17.739 8.06484 17.5843 7.875 17.1202 7.875C16.9304 7.875 16.6984 7.9875 16.1851 8.325C13.8929 9.82266 11.3335 10.8211 8.74603 11.243C8.09915 11.3484 7.90228 11.4328 7.80384 11.6438C7.58587 12.1359 7.87415 12.5859 8.40853 12.5859C8.75306 12.5859 10.6234 12.1781 11.4952 11.918C13.0913 11.4328 14.6663 10.7438 16.0023 9.95625L16.6492 9.57656L16.7617 9.91406C17.1273 11.0039 18.1398 11.9039 19.2437 12.1078C19.4687 12.15 19.6867 12.1922 19.7429 12.2063C19.8906 12.2484 19.8062 16.425 19.6445 17.1492C19.0749 19.6805 17.1554 21.6773 14.6523 22.3313C13.6468 22.5984 12.3531 22.5984 11.3476 22.3313C9.44212 21.832 7.76868 20.475 6.92493 18.7453C6.29212 17.4516 6.17962 16.6922 6.17962 13.4789C6.17962 11.3555 6.17259 11.243 6.039 11.1094C5.71556 10.7859 5.18118 10.8844 5.01243 11.2922C4.8929 11.5875 4.87181 15.532 4.99134 16.5656C5.27962 19.1812 6.72103 21.4313 8.90071 22.6898L9.49134 23.0273L9.46321 23.4492C9.40696 24.2016 8.86556 24.982 8.14837 25.3477C7.75462 25.5445 7.59993 25.5797 6.59446 25.6641C6.14446 25.6992 5.56087 25.7977 5.30775 25.882L4.83665 26.0227L4.50618 25.7625C1.96087 23.7094 1.05384 20.3273 2.24212 17.3391C2.35462 17.0438 2.62884 16.5094 2.84681 16.1508C3.60618 14.9133 3.92962 14.1328 4.18275 12.9727C4.28118 12.5227 4.30931 11.8617 4.3515 9.66797C4.40071 6.975 4.40071 6.91172 4.58353 6.29297C5.28665 3.93047 7.09368 2.1375 9.44915 1.4625C9.99759 1.30781 10.096 1.30078 12.9999 1.30078C16.4242 1.30078 16.4663 1.30781 17.8163 1.96875C19.321 2.7 20.5867 4.06406 21.1702 5.57578C21.5781 6.61641 21.5921 6.74297 21.6484 9.66797C21.6906 11.8547 21.7187 12.5227 21.8171 12.9727C22.0702 14.1258 22.3937 14.8992 23.139 16.1367C23.9265 17.4375 24.257 18.5836 24.264 20.0039C24.264 21.3539 23.9476 22.5281 23.2585 23.7234C22.8085 24.5109 22.7945 24.8625 23.2093 25.0734C23.5398 25.2422 23.8632 25.1508 24.1023 24.8203C24.4117 24.3914 24.8476 23.5125 25.0867 22.8375C25.9585 20.3484 25.621 17.6555 24.1445 15.2859C23.6663 14.5266 23.357 13.8164 23.1531 13.043C22.9702 12.3609 22.9632 12.2484 22.914 9.5625C22.8507 6.56719 22.8296 6.38438 22.4288 5.27344C21.5359 2.82656 19.4406 0.921093 16.8882 0.225002L16.1992 0.0421867L13.1757 0.0210953C10.4617 0.00703049 10.089 0.0210953 9.55462 0.133595Z" fill="#E91E63"/>
<path id="Vector_2" d="M16.0516 24.1875C15.8336 24.2719 15.6719 24.532 15.6719 24.7922C15.6719 25.0805 16.157 25.7414 16.6352 26.093C17.3312 26.6203 17.943 26.8242 18.9766 26.8945C19.8906 26.9578 20.4602 27.0984 21.1211 27.4219C22.443 28.0687 23.3922 29.243 23.7578 30.6844C23.8844 31.1766 23.8984 31.4789 23.8984 33.3773C23.8984 35.9648 23.9055 36 24.6016 36C24.8125 36 24.9039 35.9578 25.0164 35.8172C25.157 35.6344 25.1641 35.55 25.1641 33.3844C25.1641 31.6125 25.143 31.0289 25.0516 30.6C24.6648 28.7297 23.4484 27.1336 21.7539 26.2828C21.1211 25.9594 20.2773 25.7414 19.4125 25.6641C18.393 25.5797 18.2523 25.5445 17.8445 25.3406C17.5422 25.193 17.2117 24.8906 16.7828 24.3773C16.607 24.1664 16.2836 24.082 16.0516 24.1875Z" fill="#E91E63"/>
</g>
</svg>
