<svg width="28" height="28" viewBox="0 0 28 28" fill="none" xmlns="http://www.w3.org/2000/svg">
<g id="Black">
<path id="Vector" d="M17.2203 0.689833C17.1148 0.802334 17.0093 0.971083 16.9882 1.07655C16.9179 1.36483 17.0726 1.75858 17.3328 1.91327C17.5367 2.03983 17.7265 2.04687 21.1718 2.04687H24.7929L20.6867 6.15311L16.5804 10.2594L16.039 9.85155C15.3992 9.38046 14.1968 8.74765 13.4375 8.49452C12.3617 8.1289 11.539 8.00233 10.2382 8.00233C9.27496 8.00233 8.9023 8.03046 8.32574 8.14999C4.26168 9.02187 1.2523 12.1437 0.598394 16.1726C0.464801 16.9883 0.471832 18.5984 0.612457 19.4211C1.20308 22.9508 3.75543 25.9039 7.20074 27.043C8.96558 27.6266 11.1382 27.6617 12.9804 27.1484C16.4257 26.1851 19.0765 23.2953 19.85 19.6742C20.0468 18.732 20.0679 16.8828 19.8781 15.9406C19.5968 14.5062 18.9921 13.107 18.1765 12.0031L17.7125 11.3773L21.8328 7.25702L25.9531 3.13671V6.79296C25.9531 10.2734 25.9601 10.4633 26.0867 10.6672C26.2414 10.9273 26.6351 11.082 26.9234 11.0117C27.0289 10.9906 27.1976 10.8851 27.3101 10.7797L27.5 10.5969V5.75233V0.907803L27.2961 0.703896L27.0921 0.49999H22.2476H17.4031L17.2203 0.689833ZM11.8554 9.71093C14.5484 10.2453 16.9039 12.207 17.8742 14.7312C18.3312 15.9195 18.3875 16.2289 18.3875 17.7266C18.3875 18.9922 18.3734 19.1539 18.2046 19.7797C17.7968 21.2844 17.0586 22.5359 15.9617 23.5976C15.2304 24.3078 14.7171 24.6805 13.9296 25.0742C11.7851 26.157 9.21871 26.2414 7.03199 25.2922C6.04058 24.8633 5.31636 24.3641 4.47261 23.5273C3.63589 22.6836 3.13668 21.9594 2.70777 20.968C1.75855 18.7812 1.84293 16.2148 2.92574 14.0703C3.31949 13.2828 3.69214 12.7695 4.4023 12.0383C6.34293 10.0344 9.12027 9.16249 11.8554 9.71093Z" fill="#E91E63"/>
</g>
</svg>
