<svg width="16" height="16" viewBox="0 0 16 16" fill="none" xmlns="http://www.w3.org/2000/svg">
<g id="Icon/Outline/star" clip-path="url(#clip0_710_11345)">
<path id="Icon" d="M7.04895 2.92664C7.34833 2.00538 8.65167 2.00538 8.95104 2.92664L9.57175 4.83672C9.70563 5.24872 10.0896 5.52766 10.5228 5.52767L12.5312 5.52775C13.4998 5.52778 13.9026 6.76733 13.1189 7.33674L11.4942 8.51732C11.1437 8.77196 10.997 9.22329 11.1309 9.63529L11.7515 11.5454C12.0508 12.4667 10.9963 13.2328 10.2126 12.6634L8.58775 11.483C8.23728 11.2284 7.76272 11.2284 7.41225 11.483L5.78736 12.6634C5.00366 13.2328 3.94924 12.4667 4.24854 11.5454L4.8691 9.63529C5.00295 9.22329 4.8563 8.77196 4.50585 8.51732L2.88106 7.33674C2.0974 6.76733 2.50015 5.52778 3.46884 5.52775L5.47724 5.52767C5.91044 5.52766 6.29437 5.24872 6.42825 4.83672L7.04895 2.92664Z" stroke="white"/>
</g>
<defs>
<clipPath id="clip0_710_11345">
<rect width="16" height="16" fill="white"/>
</clipPath>
</defs>
</svg>
