<svg width="16" height="16" viewBox="0 0 16 16" fill="none" xmlns="http://www.w3.org/2000/svg">
<g id="Icon/Solid/star">
<path id="Icon" d="M7.23924 3.14165C7.47872 2.4046 8.52145 2.40461 8.76093 3.14165L9.61659 5.77509C9.72368 6.10471 10.0308 6.32788 10.3774 6.32788H13.1464C13.9214 6.32788 14.2436 7.31957 13.6166 7.77509L11.3765 9.40265C11.0961 9.60636 10.9788 9.96745 11.0859 10.2971L11.9415 12.9305C12.181 13.6676 11.3374 14.2805 10.7104 13.8249L8.47031 12.1974C8.18992 11.9937 7.81025 11.9937 7.52986 12.1974L5.28972 13.8249C4.66275 14.2805 3.81917 13.6676 4.05865 12.9305L4.9143 10.2971C5.0214 9.96745 4.90408 9.60636 4.62369 9.40265L2.38355 7.77509C1.75658 7.31957 2.0788 6.32788 2.85378 6.32788H5.62274C5.96932 6.32788 6.27648 6.10471 6.38358 5.77509L7.23924 3.14165Z" fill="white"/>
</g>
</svg>
